<svg width="19" height="17" viewBox="0 0 19 17" fill="none" xmlns="http://www.w3.org/2000/svg">
<path d="M9.62402 0L0 8.79743C0 8.79743 0.5953 9.92926 1.88512 8.79743L2.57963 8.23151V15.5884C2.57963 15.5884 2.57963 16.0514 2.9765 16.0514C3.47259 16.0514 7.7389 16.0514 7.7389 16.0514V11.9871C7.7389 11.9871 7.6893 11.3183 8.2846 11.3183H10.2689C11.0131 11.3183 10.9634 11.9871 10.9634 11.9871V16.0514C10.9634 16.0514 15.0313 16.0514 15.6266 16.0514C16.1723 16.0514 16.1227 15.4855 16.1227 15.4855V8.07717L16.8668 8.74598C18.3551 9.87781 18.9504 8.74598 18.9504 8.74598L9.62402 0ZM9.42559 9.72347C8.2846 9.72347 7.39164 8.79743 7.39164 7.61415C7.39164 6.43087 8.2846 5.50482 9.42559 5.50482C10.5666 5.50482 11.4595 6.43087 11.4595 7.61415C11.4595 8.74598 10.5666 9.72347 9.42559 9.72347Z" fill="white"/>
</svg>
