<svg xmlns="http://www.w3.org/2000/svg" viewBox="0 0 20.04 20.06"><defs><style>.cls-1{fill:#fff;}.cls-2{fill:none;stroke:#fff;stroke-linejoin:round;stroke-width:2px;}</style></defs><title>late_3</title><g id="Layer_2" data-name="Layer 2"><g id="Layer_1-2" data-name="Layer 1"><path class="cls-1" d="M9.13,10.64c0-.54,0-1.08,0-1.62,0-.17.05-.21.22-.21h1.4c.14,0,.19,0,.19.18,0,1.09,0,2.17,0,3.25,0,.14,0,.17-.17.17H9.29c-.16,0-.17-.07-.17-.19C9.13,11.69,9.13,11.16,9.13,10.64Z"/><path class="cls-1" d="M10.91,15.12c0,.29.11.68,0,.83S10.31,16,10,16s-.46,0-.69,0-.21,0-.21-.19c0-.48,0-1,0-1.43,0-.15.06-.19.19-.18.47,0,.94,0,1.41,0,.18,0,.21.07.21.23s0,.46,0,.69Z"/><polygon class="cls-2" points="10.02 1 1 19.06 19.04 19.06 10.02 1"/></g></g></svg>