<svg width="60" height="62" viewBox="0 0 60 62" fill="none" xmlns="http://www.w3.org/2000/svg">
<g clip-path="url(#clip0_96_18833)">
<path d="M17.7773 59.6402L19.4505 61.2972L21.0074 59.6402L19.3575 58.0059L17.7773 59.6402Z" fill="white"/>
<path d="M37.483 45.1358L35.8331 43.5015L34.2529 45.1358L35.9261 46.7701L37.483 45.1358Z" fill="white"/>
<path d="M48.776 46.9517L47.1261 45.2947L45.5459 46.9517L47.219 48.586L48.776 46.9517Z" fill="white"/>
<path d="M60 53.5796C59.9535 52.7171 59.7676 51.9454 59.4655 51.2871C59.1634 50.6288 58.7219 50.1068 58.1875 49.7209C57.653 49.335 57.0023 49.1534 56.2355 49.1534C55.701 49.1534 55.1898 49.2669 54.7483 49.5166C54.3067 49.7436 53.8885 50.0614 53.5167 50.4472C53.1449 50.8331 52.8195 51.2417 52.5174 51.6957C52.2153 52.1496 51.9597 52.5809 51.7273 53.0122C51.5182 53.3754 51.3323 53.6704 51.1464 53.8974C50.9837 54.1244 50.7978 54.2833 50.6119 54.3968C50.426 54.5103 50.2169 54.5557 49.9845 54.5557H49.938H49.2641C48.9156 54.5557 48.5902 54.533 48.2882 54.4876C47.9861 54.4422 47.684 54.3741 47.4051 54.306C47.3819 54.306 47.3819 54.306 47.3586 54.2833C47.5445 53.8066 47.7304 53.3073 47.8931 52.7852C48.1022 52.0815 48.3114 51.3098 48.4973 50.4472L45.8482 51.3552C45.8249 51.673 45.8017 52.0588 45.732 52.4901C45.6623 52.9214 45.5926 53.3073 45.4996 53.6931C45.4067 54.079 45.3369 54.3514 45.2672 54.5557H43.0829H42.897C42.3625 54.5557 41.8513 54.5103 41.3633 54.3968C41.2471 54.3741 41.1309 54.3287 41.038 54.306C41.038 54.079 41.0612 53.852 41.038 53.625C41.0147 52.649 40.8288 51.7865 40.4802 51.0147C40.1317 50.2657 39.6437 49.6755 38.9698 49.2442C38.3191 48.8129 37.4826 48.6087 36.4833 48.6087C35.5771 48.6087 34.694 48.8356 33.811 49.2896C32.928 49.7436 32.0449 50.4018 31.1851 51.2871C30.3486 52.1496 29.512 53.2392 28.6987 54.533C28.6522 54.533 28.5825 54.533 28.536 54.5103C28.2339 54.4649 27.9318 54.3968 27.653 54.3287C27.6297 54.3287 27.6297 54.3287 27.6065 54.306C27.7924 53.8293 27.9783 53.33 28.141 52.8079C28.3501 52.1042 28.5593 51.3325 28.7452 50.4699L26.0961 51.3779C26.0728 51.6957 26.0496 52.0815 25.9799 52.5128C25.9101 52.9441 25.8404 53.33 25.7475 53.7158C25.6545 54.1017 25.5848 54.3741 25.5151 54.5784H23.2378H23.0519H22.378C22.0294 54.5784 21.7041 54.5557 21.402 54.5103C21.0999 54.4649 20.7978 54.3968 20.519 54.3287C20.4957 54.3287 20.4957 54.3287 20.4725 54.306C20.6584 53.8293 20.8443 53.33 21.007 52.8079C21.2161 52.1042 21.4253 51.3325 21.6112 50.4699L18.962 51.3779C18.9388 51.6957 18.9156 52.0815 18.8459 52.5128C18.7761 52.9441 18.7064 53.33 18.6135 53.7158C18.5205 54.1017 18.4508 54.3741 18.3811 54.5784H16.1967H16.0108C15.4764 54.5784 14.9651 54.533 14.4771 54.4195C14.361 54.3968 14.2448 54.3514 14.1518 54.3287C14.1518 54.1017 14.1751 53.8747 14.1518 53.6477C14.1286 52.6717 13.9427 51.8092 13.5941 51.0374C13.2455 50.2884 12.7576 49.6982 12.0837 49.2669C11.4098 48.8356 10.5964 48.6314 9.59721 48.6314C8.69094 48.6314 7.8079 48.8583 6.9481 49.3123C6.0883 49.7663 5.27498 50.4245 4.50813 51.3325C4.39194 51.4687 4.27575 51.6276 4.13633 51.7865V43.2972H1.81255V54.533H0V56.7121H1.81255H4.08985H13.7335C13.78 56.5532 13.8033 56.417 13.8265 56.2581C13.8497 56.2581 13.8497 56.2808 13.873 56.2808C14.5469 56.5759 15.244 56.7121 15.9411 56.7121H16.127H19.1247C19.2874 56.4851 19.4268 56.2354 19.5662 56.0084C19.5662 56.0084 19.5662 56.0084 19.5895 56.0084C19.9845 56.2127 20.4493 56.3716 20.9837 56.5078C21.5182 56.644 22.1456 56.7121 22.8892 56.7121H23.0054H23.1913H26.189C26.3517 56.4851 26.4911 56.2354 26.6305 56.0084C26.6305 56.0084 26.6305 56.0084 26.6538 56.0084C27.0488 56.2127 27.5136 56.3716 28.048 56.5078C28.5825 56.644 29.2099 56.7121 29.9535 56.7121H30H30.0697H40.55C40.5964 56.5532 40.6197 56.417 40.6429 56.2581C40.6661 56.2581 40.6662 56.2808 40.6894 56.2808C41.3633 56.5759 42.0604 56.7121 42.7576 56.7121H42.9435H45.9411C46.1038 56.4851 46.2432 56.2354 46.3827 56.0084C46.3827 56.0084 46.3826 56.0084 46.4059 56.0084C46.8009 56.2127 47.2657 56.3716 47.8002 56.5078C48.3346 56.644 48.962 56.7121 49.7057 56.7121H49.8218H49.8683H50.0077C50.4725 56.6894 50.8908 56.6213 51.2393 56.4851C51.6112 56.3262 51.9365 56.1219 52.2153 55.8722C52.3548 55.736 52.471 55.5998 52.5871 55.4636C52.6104 55.4863 52.6336 55.5317 52.6569 55.5544C53.0054 55.8949 53.4005 56.19 53.8187 56.417C54.237 56.644 54.7018 56.8029 55.1898 56.9163C55.6778 57.0298 56.1658 57.0752 56.677 57.0752C57.1882 57.0752 57.6762 57.0071 58.1875 56.8936C58.6987 56.7802 59.1634 56.6213 59.6282 56.3943C59.9303 55.3955 60.0465 54.4422 60 53.5796ZM11.8513 54.533H4.15957C4.43842 54.079 4.74051 53.6704 5.0426 53.3073C5.73974 52.4674 6.46011 51.8319 7.18048 51.4006C7.90085 50.9693 8.62122 50.765 9.27188 50.765C9.92254 50.765 10.4338 50.9239 10.8288 51.219C11.2006 51.5368 11.4795 51.968 11.6421 52.5355C11.8048 53.1257 11.8745 53.7839 11.8513 54.533ZM31.1387 54.533C31.4175 54.1244 31.6964 53.7385 31.9752 53.3981C32.6723 52.5355 33.3927 51.9 34.0899 51.446C34.8102 50.992 35.5074 50.765 36.2045 50.765C36.8319 50.765 37.3431 50.9239 37.715 51.219C38.0868 51.5141 38.3424 51.968 38.505 52.5355C38.6677 53.103 38.7374 53.7612 38.7142 54.5103H31.1387V54.533ZM57.9318 54.8962C57.4206 54.9643 56.9094 54.9643 56.4446 54.8962C55.9566 54.8281 55.5383 54.7373 55.1201 54.5784C54.725 54.4195 54.3532 54.2379 54.0511 54.0336C53.9349 53.9655 53.842 53.8747 53.749 53.8066C54.0976 53.1938 54.3997 52.7171 54.6321 52.3766C54.9109 51.9907 55.1665 51.7184 55.3989 51.5822C55.6313 51.446 55.8404 51.3779 56.0496 51.3779C56.3517 51.3779 56.6073 51.4687 56.8629 51.6503C57.1185 51.8319 57.3277 52.1042 57.4903 52.422C57.653 52.7625 57.7924 53.1257 57.8621 53.557C57.9318 53.9882 57.9551 54.4195 57.9318 54.8962Z" fill="white"/>
</g>
<path d="M36.0156 11.2356C37.0913 11.2356 37.9579 10.369 37.9579 9.29328C37.9579 8.21753 37.0913 7.35095 36.0156 7.35095C34.9398 7.35095 34.0732 8.21753 34.0732 9.29328C34.0732 10.369 34.9398 11.2356 36.0156 11.2356ZM36.0156 7.64977C36.2995 7.64977 36.5684 7.72448 36.7925 7.84401C36.7327 7.88883 36.6879 7.96353 36.6879 8.03824H36.912V7.91871C37.3603 8.21753 37.6591 8.72553 37.6591 9.29328C37.6591 10.2047 36.927 10.9368 36.0156 10.9368C35.1042 10.9368 34.3721 10.2047 34.3721 9.29328C34.3721 8.38188 35.1042 7.64977 36.0156 7.64977Z" fill="white"/>
<path d="M22.6591 11.3402C23.7349 11.3402 24.6015 10.4737 24.6015 9.3979C24.6015 8.32215 23.7349 7.45557 22.6591 7.45557C21.5834 7.45557 20.7168 8.32215 20.7168 9.3979C20.7168 10.4737 21.5983 11.3402 22.6591 11.3402ZM22.6591 7.75439C23.5705 7.75439 24.3026 8.4865 24.3026 9.3979C24.3026 10.3093 23.5705 11.0414 22.6591 11.0414C21.7477 11.0414 21.0156 10.3093 21.0156 9.3979C21.0156 8.4865 21.7627 7.75439 22.6591 7.75439Z" fill="white"/>
<path d="M29.3378 7.33602C30.4136 7.33602 31.2802 6.46944 31.2802 5.39369C31.2802 4.31793 30.4136 3.45135 29.3378 3.45135C28.2621 3.45135 27.3955 4.31793 27.3955 5.39369C27.3955 6.46944 28.2621 7.33602 29.3378 7.33602ZM29.3378 3.75018C29.9504 3.75018 30.4734 4.07888 30.7572 4.57193C30.6527 4.58687 30.5331 4.52711 30.5182 4.66158C30.5032 4.84087 30.6228 4.78111 30.7572 4.79605V4.58687C30.7871 4.6317 30.8021 4.67652 30.8319 4.72134V4.78111H30.8618C30.8768 4.79605 30.8768 4.82593 30.8917 4.85581C30.8768 4.85581 30.8618 4.85581 30.8469 4.85581L30.8618 5.07993H30.9664C30.9664 5.10981 30.9814 5.13969 30.9814 5.16957H30.8469V5.37875H30.9963C30.9963 5.37875 30.9963 5.37875 30.9963 5.39369C30.9963 5.40863 30.9963 5.43851 30.9963 5.45345H30.8618L30.8768 5.67757C30.9216 5.69251 30.9515 5.70745 30.9814 5.70745C30.9814 5.73733 30.9664 5.75227 30.9664 5.78215H30.8618V5.97639H30.8917C30.6526 6.58897 30.055 7.0372 29.3528 7.0372C28.6954 7.0372 28.1276 6.64873 27.8736 6.09592H29.2034C29.3378 6.09592 29.4125 6.24533 29.5321 6.29015C29.5769 6.24533 29.308 6.06603 29.2631 6.05109H27.8587C27.8587 6.03615 27.8437 6.02121 27.8437 6.00627H29.2631C29.2781 6.00627 29.4125 6.08097 29.4424 6.09592C29.4723 6.1258 29.6068 6.30509 29.6367 6.27521V4.90063C29.6367 4.87075 29.5171 4.7064 29.4873 4.67652C29.4424 4.6317 29.2631 4.55699 29.2034 4.55699H27.9782C28.2173 4.06394 28.7402 3.75018 29.3378 3.75018Z" fill="white"/>
<path d="M42.0825 0H17.3252C13.5003 0 10.3926 3.10773 10.3926 6.93263V31.6899C10.3926 35.5148 13.5003 38.6225 17.3252 38.6225H28.1574H31.2353H42.0675C45.8924 38.6225 49.0002 35.5148 49.0002 31.6899V6.93263C49.0002 3.10773 45.9074 0 42.0825 0ZM39.1989 35.7389H31.2353V29.0603H37.5105V28.373H22.3006V29.0603H28.1574V35.7389H20.1939C16.369 35.7389 13.2613 32.6312 13.2613 28.8063V21.6495L15.7863 26.6996C16.0403 26.7295 15.9058 26.4157 15.861 26.2813C15.4277 24.9814 14.8599 23.7263 14.4565 22.4265C14.4267 22.3219 14.3221 22.1277 14.4715 22.1277C19.5066 22.7104 24.6762 23.7562 28.7999 26.849C28.3816 25.7882 27.2162 24.9067 26.2599 24.3389C22.5097 22.0679 17.5941 21.291 13.2613 20.6933V9.80131C13.2613 5.97641 16.369 2.86868 20.1939 2.86868H39.1989C43.0238 2.86868 46.1315 5.97641 46.1315 9.80131V20.7531C41.7687 21.3806 36.6738 22.1874 33.0432 24.6527C32.7443 24.8619 30.7273 26.5353 31.0112 26.8341C35.12 23.7413 40.2896 22.6954 45.3247 22.1277C45.4741 22.1277 45.3695 22.3069 45.3396 22.4265C44.9362 23.7263 44.3685 24.9814 43.9352 26.2813C43.8903 26.4157 43.7409 26.7295 44.0099 26.6996L46.1315 22.4564V28.7914C46.1315 32.6312 43.0238 35.7389 39.1989 35.7389Z" fill="white"/>
<path d="M26.2154 9.54727C26.4395 9.62197 26.7383 9.36797 26.9475 9.29327C28.4117 8.72551 29.5771 8.5761 31.116 9.00939C31.385 9.08409 32.0723 9.4128 32.2516 9.42774C32.4607 9.44268 32.6251 9.20362 32.5653 9.00939C32.5056 8.80022 31.5792 8.51634 31.3402 8.44163C30.4586 8.18763 29.5472 8.11293 28.6209 8.20257C28.1876 8.2474 27.6946 8.38187 27.2762 8.53128C27.0372 8.62092 26.3499 8.88986 26.1706 9.02433C25.9614 9.18868 25.9913 9.4875 26.2154 9.54727Z" fill="white"/>
<path d="M24.3623 12.4907C24.3623 12.7447 24.5715 12.9688 24.8404 12.9688C25.0944 12.9688 25.3185 12.7596 25.3185 12.4907C25.3185 12.4309 25.3036 12.3562 25.2886 12.3114C25.4082 12.162 25.5128 11.9678 25.6174 11.8333C27.1264 10.145 29.263 9.48755 31.3995 10.4139C32.3558 10.8322 33.0281 11.5793 33.7154 12.3413C34.6567 12.401 33.7602 11.4448 33.4763 11.146C32.3558 9.9806 30.7272 9.29332 29.0986 9.3979C27.7838 9.48755 26.4242 10.1151 25.4978 11.0564C25.3335 11.2207 24.9301 11.6839 24.7657 12.0275C24.5267 12.0574 24.3623 12.2516 24.3623 12.4907Z" fill="white"/>
<path d="M17.5938 18.2728L18.1466 20.6933C19.2223 20.9473 20.2981 21.0668 21.3589 21.3507C24.4218 22.1724 27.1859 23.8608 29.4868 26.0123C29.5764 25.9077 28.6053 24.5331 28.4559 24.3538C25.7665 21.1415 21.5531 19.3635 17.5938 18.2728Z" fill="white"/>
<path d="M41.6644 20.6933L42.2172 18.2728C38.2728 19.3635 34.0295 21.1415 31.3551 24.3538C31.2057 24.5331 30.2196 25.9077 30.3242 26.0123C32.6251 23.8608 35.3892 22.1724 38.4521 21.3507C39.5129 21.0668 40.5886 20.9473 41.6644 20.6933Z" fill="white"/>
<path d="M21.8818 17.0328L22.3151 19.3636C25.2286 20.0359 27.425 22.2323 29.3523 24.3539C28.5306 21.6496 26.1101 19.3038 23.7196 17.8844C23.4656 17.735 22.0462 16.8684 21.8818 17.0328Z" fill="white"/>
<path d="M37.4952 19.3636L37.9285 17.0328C37.7492 16.8834 36.3597 17.735 36.0908 17.8844C33.7151 19.3038 31.2798 21.6495 30.458 24.3539C32.3854 22.2322 34.5817 20.0359 37.4952 19.3636Z" fill="white"/>
<path d="M30.817 19.1693C31.071 19.1693 31.2952 18.9601 31.2952 18.6912C31.2952 18.4372 31.086 18.213 30.817 18.213C30.7722 18.213 30.7274 18.228 30.6826 18.228C30.4734 18.1234 30.2343 18.0039 30.1447 17.9441C29.1885 17.2867 28.307 16.0317 28.4265 14.8214C28.4862 14.164 29.1436 13.6262 29.7861 13.9399C30.5182 14.2985 30.4136 15.7179 31.3101 16.2408C31.833 16.5397 32.6996 16.3902 33.118 15.9719C34.0592 15.0306 33.3869 13.163 32.6548 12.2665C31.2952 10.5931 29.0988 10.2345 27.2163 11.3103C25.5279 12.2815 25.0946 14.1342 25.244 15.9719C25.244 16.0466 25.259 16.1362 25.2739 16.2259C25.2291 16.3006 25.1992 16.3902 25.1992 16.4799C25.1992 16.7339 25.4084 16.958 25.6773 16.958C25.9313 16.958 26.1554 16.7488 26.1554 16.4799C26.1554 16.3006 26.0509 16.1512 25.9014 16.0615C25.8716 15.942 25.8566 15.8225 25.8417 15.7179C25.7819 13.5813 26.529 11.6988 28.8897 11.3551C30.9515 11.0563 33.2225 12.8044 32.9686 14.9559C32.8789 15.7926 31.8032 16.1362 31.3101 15.4191C30.7872 14.672 30.8768 13.417 29.5769 13.2676C28.3219 13.1182 27.7392 14.3284 27.8288 15.434C27.9334 16.6442 29.1436 18.2579 30.3389 18.8107C30.4136 19.0199 30.5929 19.1693 30.817 19.1693Z" fill="white"/>
<path d="M32.0722 15.4789C32.3262 15.4789 32.5503 15.2697 32.5503 15.0008C32.5503 14.8364 32.4607 14.687 32.3262 14.5974C32.2814 14.2836 32.1619 13.925 32.1021 13.7458C31.5792 12.5057 30.3689 11.8333 29.0242 12.0126C28.4117 12.1022 27.5899 12.5804 27.1865 13.0435C25.782 14.6273 26.6337 17.2121 27.8439 18.6614C27.8887 18.7062 27.9336 18.7809 27.9933 18.8406C27.9933 18.8705 27.9784 18.9004 27.9784 18.9303C27.9784 19.1843 28.1876 19.4084 28.4565 19.4084C28.7105 19.4084 28.9346 19.1992 28.9346 18.9303C28.9346 18.6912 28.7553 18.497 28.5163 18.4671C28.3668 18.2878 28.1876 18.1085 28.0979 18.0039C27.067 16.5995 26.3797 14.1342 28.1577 13.0136C29.6817 12.0724 31.3849 12.8344 31.7136 14.5675C31.7286 14.6123 31.7286 14.6572 31.7286 14.702C31.6539 14.7916 31.609 14.8962 31.609 15.0157C31.5941 15.2697 31.8033 15.4789 32.0722 15.4789Z" fill="white"/>
<path d="M32.5055 17.2569C32.4607 17.2718 32.4009 17.2718 32.3561 17.2718C31.2355 17.2569 30.1448 16.6443 29.7713 15.5536C29.6817 15.2697 29.7265 14.6572 29.3081 14.702C28.8001 14.7468 29.2185 15.8375 29.338 16.0915C29.8908 17.2569 31.2056 17.9292 32.4607 17.8695C32.5055 17.8695 32.5802 17.8545 32.6699 17.8396C32.7446 17.8844 32.8342 17.9143 32.9239 17.9143C33.1779 17.9143 33.402 17.7051 33.402 17.4362C33.402 17.1822 33.1928 16.9581 32.9239 16.9581C32.7446 16.973 32.5802 17.0925 32.5055 17.2569Z" fill="white"/>
<path d="M36.9126 10.2048V8.11303C36.8678 8.09809 36.6885 8.09809 36.6885 8.1728V10.2496H36.8379C36.8528 10.2645 36.9126 10.2347 36.9126 10.2048Z" fill="white"/>
<path d="M35.0303 10.5484C35.0303 10.5782 35.0303 10.5932 35.0602 10.6081C35.1199 10.6231 35.2544 10.6231 35.2544 10.5334C35.2544 9.95071 35.2544 9.36801 35.2544 8.78531C35.2544 8.75543 35.2693 8.71061 35.2544 8.68073H35.1199L35.0751 8.69567C35.0153 8.72555 35.0602 8.86002 35.0303 8.91978V10.5484Z" fill="white"/>
<path d="M36.5842 10.2047V8.32214H36.4497C36.4348 8.32214 36.375 8.35203 36.375 8.38191V10.2645H36.5244C36.5244 10.2645 36.5842 10.2197 36.5842 10.2047Z" fill="white"/>
<path d="M36.0312 8.74048V10.2645H36.1956C36.2105 10.2645 36.2554 10.2196 36.2554 10.2047V8.66577H36.106C36.091 8.66577 36.0312 8.71059 36.0312 8.74048Z" fill="white"/>
<path d="M35.4482 8.66577C35.4332 8.66577 35.3884 8.69565 35.3735 8.69565C35.3735 8.72554 35.3735 8.74048 35.3735 8.75542V8.77036C35.3585 9.24847 35.3884 9.74153 35.3735 10.2196V10.2346C35.3884 10.2495 35.5229 10.2346 35.5378 10.2346C35.5527 10.2346 35.5826 10.1748 35.5826 10.1599V8.68071C35.5826 8.68071 35.5677 8.66577 35.5826 8.66577H35.4482Z" fill="white"/>
<path d="M35.5832 8.38195C35.5683 8.33713 35.5085 8.30724 35.4637 8.32218C35.374 8.33713 35.3292 8.42677 35.374 8.50148C35.4637 8.62101 35.643 8.51642 35.5832 8.38195Z" fill="white"/>
<path d="M35.7918 8.54626C35.9711 8.5612 35.9562 8.29226 35.7769 8.32214C35.6573 8.35203 35.6723 8.54626 35.7918 8.54626Z" fill="white"/>
<path d="M36.4494 10.5782C36.554 10.5931 36.6137 10.4736 36.554 10.3989C36.4793 10.3092 36.3299 10.3541 36.3448 10.4736C36.3448 10.5184 36.4046 10.5782 36.4494 10.5782Z" fill="white"/>
<path d="M36.2104 8.53129C36.315 8.47153 36.2552 8.29224 36.1207 8.32212C36.046 8.33706 36.0161 8.41177 36.0311 8.47153C36.061 8.54623 36.1506 8.57612 36.2104 8.53129Z" fill="white"/>
<path d="M35.7772 10.2944H35.7471V10.3094H35.7772V10.2944Z" fill="white"/>
<path d="M35.733 8.69565L35.7031 8.74048V10.2495C35.7629 10.2495 35.8675 10.2645 35.8974 10.2196L35.9123 10.1898V8.68071C35.8824 8.66577 35.7629 8.66577 35.733 8.69565Z" fill="white"/>
<path d="M22.1812 9.90587C22.1962 9.90587 22.241 9.9507 22.2559 9.9507C22.5249 10.115 22.8536 10.115 23.0926 9.90587C23.3616 10.1001 23.7052 10.13 23.9891 9.9507C24.0339 9.92081 24.0787 9.89093 24.1086 9.84611C24.1534 9.81623 24.1086 9.80129 24.0787 9.81623C23.8546 9.93576 23.6156 9.96564 23.3914 9.84611C23.3616 9.83117 23.2271 9.75646 23.2271 9.74152C23.2122 9.71164 23.2719 9.6967 23.242 9.68176C23.2122 9.65188 23.1823 9.6967 23.1673 9.68176C23.1524 9.68176 23.0777 9.59211 23.0627 9.57717C23.0478 9.56223 23.0478 9.56223 23.0478 9.56223C23.0329 9.53235 23.003 9.47258 22.988 9.4427C22.9731 9.41282 22.9731 9.368 22.9582 9.33812C22.9582 9.32317 22.9582 9.32317 22.9582 9.30823C22.9582 9.27835 22.9731 9.26341 22.9432 9.27835C22.9432 9.26341 22.9432 9.24847 22.9432 9.24847C22.9582 9.20365 22.9582 9.14388 22.9432 9.09906C22.9432 9.08412 22.9432 9.06918 22.9582 9.06918C22.9582 9.05424 22.9582 9.05424 22.9731 9.0393C22.9731 9.02435 22.9731 9.02435 22.9731 9.00941C22.988 8.97953 23.003 8.93471 23.003 8.90483V8.87494C23.003 8.87494 23.0179 8.88988 23.0179 8.86V8.84506C23.0179 8.84506 23.0329 8.86 23.0329 8.83012C23.0329 8.83012 23.0329 8.83012 23.0329 8.81518C23.0627 8.80024 23.0627 8.74047 23.0926 8.77036C23.1225 8.7853 23.1972 8.91977 23.2122 8.94965C23.2869 9.08412 23.3317 9.21859 23.3317 9.368C23.3317 9.39788 23.3018 9.53235 23.3018 9.54729L23.3466 9.57717C23.3616 9.57717 23.4064 9.47258 23.4213 9.45764C23.5259 9.17376 23.4512 8.83012 23.2271 8.62095C23.1524 8.65083 23.0777 8.71059 23.0179 8.77036C23.0179 8.77036 23.0179 8.7853 23.003 8.7853C23.003 8.7853 23.003 8.7853 22.988 8.80024C22.988 8.80024 22.988 8.80024 22.9731 8.81518C22.9582 8.83012 22.9283 8.88988 22.9283 8.88988C22.9283 8.88988 22.9283 8.87494 22.9133 8.90483C22.8984 8.91977 22.8835 8.97953 22.8835 8.97953C22.8835 8.97953 22.8835 8.96459 22.8685 8.99447C22.8685 9.00941 22.8685 9.00941 22.8536 9.02435C22.8386 9.05424 22.8386 9.05424 22.8237 9.09906V9.114C22.8237 9.114 22.8087 9.114 22.8087 9.12894C22.8087 9.14388 22.8087 9.14388 22.8087 9.15882C22.7938 9.15882 22.7938 9.17376 22.7938 9.18871C22.7938 9.20365 22.7938 9.20365 22.7938 9.21859C22.7938 9.23353 22.7938 9.23353 22.7938 9.24847C22.7938 9.27835 22.7938 9.32317 22.7938 9.35306C22.7938 9.368 22.7938 9.368 22.7938 9.38294V9.39788C22.7938 9.41282 22.7938 9.42776 22.8087 9.42776V9.4427C22.8087 9.45764 22.8087 9.47258 22.8237 9.47258V9.48753C22.8237 9.50247 22.8386 9.56223 22.8536 9.56223C22.8536 9.57717 22.8536 9.57717 22.8536 9.59211C22.8536 9.62199 22.8685 9.60705 22.8685 9.60705C22.8685 9.60705 22.8835 9.65188 22.8835 9.66682V9.68176H22.8984C22.8984 9.68176 22.8984 9.68176 22.8984 9.6967C22.9133 9.72658 22.8984 9.6967 22.9133 9.71164C22.9133 9.71164 22.9582 9.78635 22.9731 9.78635L22.988 9.80129C22.988 9.81623 22.9283 9.83117 22.9133 9.83117C22.734 9.89093 22.5547 9.89093 22.3755 9.84611C22.3456 9.84611 22.2858 9.81623 22.2559 9.80129C22.241 9.78635 22.2709 9.75646 22.2709 9.74152C22.3008 9.74152 22.3008 9.71164 22.3008 9.6967V9.68176H22.3157V9.66682V9.65188H22.3306V9.63694C22.3306 9.62199 22.3306 9.60705 22.3456 9.60705C22.3605 9.60705 22.3904 9.53235 22.3904 9.51741V9.50247C22.4053 9.48753 22.4053 9.47258 22.4053 9.45764C22.4053 9.4427 22.4053 9.41282 22.4203 9.39788C22.4203 9.39788 22.4352 9.38294 22.4352 9.368C22.4352 9.30823 22.4352 9.23353 22.4203 9.18871C22.4203 9.17376 22.4203 9.15882 22.4203 9.15882C22.4203 9.114 22.3904 9.05424 22.3755 9.00941C22.3755 8.99447 22.3755 8.97953 22.3605 8.97953C22.3605 8.96459 22.3456 8.94965 22.3456 8.91977C22.3306 8.88988 22.3306 8.90483 22.3306 8.90483C22.3306 8.90483 22.3306 8.88989 22.3157 8.87494C22.3008 8.84506 22.3008 8.86 22.3008 8.86C22.2858 8.84506 22.2858 8.83012 22.2709 8.81518C22.2709 8.81518 22.2858 8.7853 22.2559 8.80024C22.2559 8.7853 22.241 8.7853 22.241 8.77036C22.1962 8.69565 22.1065 8.63589 22.0169 8.59106C21.7629 8.83012 21.7031 9.24847 21.8973 9.54729C21.987 9.51741 21.9422 9.50247 21.9422 9.4427C21.9123 9.27835 21.9272 9.18871 21.987 9.0393C22.0169 8.96459 22.1215 8.7853 22.1663 8.74047C22.1962 8.71059 22.1812 8.75542 22.1962 8.77036C22.1962 8.7853 22.2111 8.77036 22.2111 8.7853C22.226 8.80024 22.226 8.84506 22.241 8.86C22.241 8.87494 22.226 8.87494 22.2559 8.87494C22.2559 8.88989 22.2559 8.88988 22.2559 8.90483C22.2709 8.94965 22.2709 8.99447 22.2858 9.0393C22.2858 9.05424 22.2858 9.05424 22.2858 9.06918C22.2858 9.09906 22.3008 9.09906 22.3008 9.114C22.3008 9.15882 22.3008 9.17376 22.3008 9.21859C22.3008 9.23353 22.2858 9.23353 22.2858 9.26341C22.2858 9.27835 22.2858 9.27835 22.2858 9.29329C22.2709 9.29329 22.2709 9.30823 22.2709 9.32317V9.33812C22.2559 9.368 22.2559 9.39788 22.241 9.42776V9.45764C22.241 9.45764 22.226 9.4427 22.226 9.47258V9.48753C22.226 9.48753 22.2111 9.47258 22.2111 9.50247V9.51741C22.1812 9.51741 22.1962 9.53235 22.1812 9.54729C22.1663 9.57717 22.1364 9.63694 22.1065 9.65188C22.1065 9.65188 22.1065 9.65188 22.0916 9.66682C22.0916 9.66682 22.0766 9.6967 22.0617 9.6967L22.0169 9.68176C22.0169 9.68176 22.0318 9.65188 22.0019 9.66682C21.987 9.66682 22.0019 9.68176 22.0019 9.68176C22.0019 9.68176 21.987 9.66682 21.987 9.6967C21.987 9.71164 21.987 9.72658 22.0019 9.72658C22.0019 9.72658 22.0019 9.72658 22.0019 9.74152C22.0019 9.75646 22.0019 9.75646 22.0019 9.77141C21.972 9.78635 21.987 9.78635 21.987 9.78635C21.972 9.80129 21.9571 9.80129 21.9422 9.81623C21.9123 9.83117 21.9272 9.83117 21.9272 9.83117C21.9123 9.84611 21.7479 9.90587 21.7181 9.90587C21.4939 9.96564 21.3146 9.92081 21.1055 9.81623C21.1055 9.84611 21.1055 9.84611 21.1204 9.84611C21.4043 10.13 21.9123 10.1449 22.1812 9.90587Z" fill="white"/>
<path d="M23.1375 9.41282L23.0628 9.21859C23.0479 9.368 23.1076 9.54729 23.2122 9.65188C23.526 9.98058 24.0788 9.81623 24.1834 9.38294C24.1983 9.32318 24.2133 9.20365 24.1685 9.17377C24.1685 9.35306 24.0489 9.53235 23.8995 9.60706C23.6306 9.75647 23.3019 9.66682 23.1375 9.41282Z" fill="white"/>
<path d="M21.7475 9.83115C22.0314 9.78633 22.2257 9.51739 22.2107 9.23351C22.1958 9.20363 22.1659 9.30822 22.1659 9.32316C21.9717 9.83115 21.2993 9.83115 21.12 9.30822C21.12 9.29327 21.0901 9.17375 21.0752 9.20363V9.3381C21.0752 9.38292 21.12 9.50245 21.1499 9.54727C21.2545 9.75645 21.4935 9.87597 21.7475 9.83115Z" fill="white"/>
<path d="M22.809 8.5911C23.0033 8.38193 22.6746 8.06817 22.4654 8.29228C22.2712 8.5164 22.5999 8.81522 22.809 8.5911Z" fill="white"/>
<path d="M29.8455 5.66259L29.8306 5.45342L29.6064 5.43848C29.6064 5.66259 29.6214 5.75224 29.8455 5.66259Z" fill="white"/>
<path d="M30.5481 5.46837L30.5332 5.67755C30.7573 5.75225 30.7872 5.6626 30.7573 5.45343L30.5481 5.46837Z" fill="white"/>
<path d="M30.7567 5.065L30.7716 4.84088C30.5624 4.82594 30.4728 4.84088 30.5475 5.065H30.7567Z" fill="white"/>
<path d="M29.6517 4.85579L29.6367 5.06496L29.8459 5.0799C29.9057 4.88567 29.8459 4.8259 29.6517 4.85579Z" fill="white"/>
<path d="M30.1447 4.85577H29.9355V5.09483H30.1447V4.85577Z" fill="white"/>
<path d="M30.4582 4.85577H30.249V5.09483H30.4582V4.85577Z" fill="white"/>
<path d="M29.9505 5.67755L30.1447 5.69249V5.45343H29.9355C29.9355 5.51319 29.9057 5.64766 29.9505 5.67755Z" fill="white"/>
<path d="M30.4433 5.66259L30.4582 5.43848H30.249V5.67753C30.2938 5.69247 30.4134 5.70741 30.4433 5.66259Z" fill="white"/>
<path d="M29.8602 5.76721H29.6211V5.97639L29.8452 5.96145C29.8751 5.93156 29.8602 5.81203 29.8602 5.76721Z" fill="white"/>
<path d="M30.5481 5.96146C30.578 6.00628 30.7274 5.9764 30.7723 5.99134V5.78217H30.5332L30.5481 5.96146Z" fill="white"/>
<path d="M29.8602 5.16962H29.6211V5.37879L29.8452 5.36385C29.8751 5.33397 29.8602 5.21444 29.8602 5.16962Z" fill="white"/>
<path d="M30.7723 5.37879V5.16962H30.5332L30.5481 5.36385C30.578 5.40867 30.7125 5.37879 30.7723 5.37879Z" fill="white"/>
<path d="M30.4582 4.5719H30.249V4.78107H30.4582V4.5719Z" fill="white"/>
<path d="M30.4582 5.16962H30.249V5.37879H30.4582V5.16962Z" fill="white"/>
<path d="M30.1447 5.16962H29.9355V5.37879H30.1447V5.16962Z" fill="white"/>
<path d="M30.1447 5.76721H29.9355V5.97639H30.1447V5.76721Z" fill="white"/>
<path d="M30.4582 5.76721H30.249V5.97639H30.4582V5.76721Z" fill="white"/>
<path d="M30.144 4.57197C30.0992 4.57197 29.9647 4.55703 29.9349 4.60185L29.9199 4.79609H30.1291V4.57197H30.144Z" fill="white"/>
<path d="M29.6211 6.26032L29.6958 6.24538L29.8303 6.05115H29.6211V6.26032Z" fill="white"/>
<path d="M29.8606 4.64663C29.8308 4.61675 29.7112 4.76616 29.6963 4.79604L29.8457 4.7811L29.8606 4.64663Z" fill="white"/>
<defs>
<clipPath id="clip0_96_18833">
<rect width="60" height="18" fill="white" transform="translate(0 43.2972)"/>
</clipPath>
</defs>
</svg>
