<svg xmlns="http://www.w3.org/2000/svg" viewBox="0 0 241.11 241.11"><defs><style>.cls-1{fill:#ffd009;}.cls-2{fill:#f7a41b;}.cls-3{fill:#f7a934;}.cls-4{fill:#f49823;}</style></defs><title>reward2</title><g id="Layer_2" data-name="Layer 2"><g id="Layer_1-2" data-name="Layer 1"><circle class="cls-1" cx="120.56" cy="120.56" r="120.56" transform="translate(-49.94 120.56) rotate(-45)"/><path class="cls-2" d="M203.79,33.34A120.56,120.56,0,0,1,33.34,203.79,120.56,120.56,0,1,0,203.79,33.34Z"/><path class="cls-3" d="M102.23,201.06c4.84,3.81,6.13,10.12,6.13,10.12s-6.55.16-11.38-3.65-6.13-10.12-6.13-10.12S97.4,197.26,102.23,201.06Z"/><path class="cls-3" d="M96.39,211c5.84-2,12,.23,12,.23s-3.33,5.55-9.17,7.58-12-.24-12-.24S90.55,213,96.39,211Z"/><path class="cls-3" d="M83.37,196C87.62,200.37,88,206.8,88,206.8s-6.51-.73-10.77-5.15-4.64-10.86-4.64-10.86S79.11,191.53,83.37,196Z"/><path class="cls-3" d="M76.2,205C82.26,203.73,88,206.8,88,206.8s-4.08,5-10.14,6.26-11.82-1.85-11.82-1.85S70.13,206.16,76.2,205Z"/><path class="cls-3" d="M68.52,188.6c3.49,5,2.84,11.45,2.84,11.45s-6.3-1.74-9.79-6.77-2.85-11.44-2.85-11.44S65,183.58,68.52,188.6Z"/><path class="cls-3" d="M60,196.37c6.18-.26,11.37,3.68,11.37,3.68s-4.83,4.34-11,4.6S49,201,49,201,53.81,196.63,60,196.37Z"/><path class="cls-3" d="M54.65,177.42c2.14,5.71-.07,11.77-.07,11.77s-5.68-3.19-7.83-8.9.06-11.78.06-11.78S52.5,171.71,54.65,177.42Z"/><path class="cls-3" d="M44.46,182.92c6.06,1.22,10.12,6.27,10.12,6.27s-5.76,3.07-11.82,1.84-10.13-6.28-10.13-6.28S38.4,181.69,44.46,182.92Z"/><path class="cls-3" d="M44.16,164.46c.72,6-2.87,11.43-2.87,11.43s-4.77-4.42-5.49-10.47S38.67,154,38.67,154,43.44,158.41,44.16,164.46Z"/><path class="cls-3" d="M32.94,167.44c5.6,2.6,8.35,8.45,8.35,8.45s-6.34,1.64-11.93-.95S21,166.49,21,166.49,27.34,164.85,32.94,167.44Z"/><path class="cls-3" d="M35.21,148.14c-.51,6.07-5.13,10.64-5.13,10.64s-3.77-5.26-3.26-11.33S32,136.81,32,136.81,35.73,142.07,35.21,148.14Z"/><path class="cls-3" d="M23.61,148.87c5,3.64,6.47,9.91,6.47,9.91s-6.54.38-11.5-3.26-6.47-9.91-6.47-9.91S18.65,145.23,23.61,148.87Z"/><path class="cls-3" d="M30.59,132.58c-1.48,5.92-6.77,9.71-6.77,9.71s-2.89-5.78-1.4-11.69,6.77-9.71,6.77-9.71S32.08,126.67,30.59,132.58Z"/><path class="cls-3" d="M19,131.5c4.32,4.37,4.8,10.79,4.8,10.79s-6.52-.65-10.83-5-4.8-10.79-4.8-10.79S14.71,127.14,19,131.5Z"/><path class="cls-3" d="M30.09,115.25c-2.9,5.38-9,7.8-9,7.8s-1.37-6.3,1.53-11.68,9-7.8,9-7.8S33,109.87,30.09,115.25Z"/><path class="cls-3" d="M19.13,111.43c3.11,5.27,2,11.62,2,11.62s-6.16-2.19-9.27-7.45-2-11.62-2-11.62S16,106.17,19.13,111.43Z"/><path class="cls-3" d="M33.18,97.75c-4.1,4.56-10.58,5.51-10.58,5.51s.17-6.44,4.28-11,10.57-5.51,10.57-5.51S37.28,93.19,33.18,97.75Z"/><path class="cls-3" d="M23.44,91.51c1.77,5.84-.84,11.75-.84,11.75s-5.47-3.55-7.23-9.39.84-11.75.84-11.75S21.68,85.67,23.44,91.51Z"/><path class="cls-3" d="M39.51,83.36c-5,3.52-11.57,3-11.57,3s1.66-6.24,6.71-9.76,11.58-3,11.58-3S44.57,79.84,39.51,83.36Z"/><path class="cls-3" d="M31.48,75.1c.36,6.08-3.54,11.26-3.54,11.26s-4.5-4.69-4.87-10.77,3.54-11.25,3.54-11.25S31.11,69,31.48,75.1Z"/><path class="cls-3" d="M47.44,70.35C41.88,73,35.52,71.5,35.52,71.5s2.65-5.9,8.2-8.59,11.91-1.15,11.91-1.15S53,67.66,47.44,70.35Z"/><path class="cls-3" d="M40.83,60.94C40.21,67,35.52,71.5,35.52,71.5s-3.68-5.33-3.07-11.38,5.31-10.56,5.31-10.56S41.45,54.88,40.83,60.94Z"/><path class="cls-3" d="M135.8,200.25c-4.84,3.8-6.13,10.12-6.13,10.12s6.55.15,11.38-3.65,6.13-10.13,6.13-10.13S140.63,196.44,135.8,200.25Z"/><path class="cls-3" d="M141.64,210.13c-5.83-2-12,.24-12,.24s3.33,5.55,9.17,7.57,12-.24,12-.24S147.48,212.15,141.64,210.13Z"/><path class="cls-3" d="M152.27,196c-4.25,4.42-4.64,10.85-4.64,10.85s6.5-.73,10.76-5.15S163,190.79,163,190.79,156.53,191.53,152.27,196Z"/><path class="cls-3" d="M159.45,205c-6.07-1.22-11.82,1.85-11.82,1.85s4.07,5,10.13,6.26,11.82-1.85,11.82-1.85S165.51,206.16,159.45,205Z"/><path class="cls-3" d="M167.1,188c-3.49,5-2.85,11.44-2.85,11.44s6.31-1.74,9.8-6.77,2.84-11.44,2.84-11.44S170.59,183,167.1,188Z"/><path class="cls-3" d="M175.63,195.75c-6.19-.25-11.38,3.68-11.38,3.68s4.84,4.35,11,4.6,11.37-3.67,11.37-3.67S181.81,196,175.63,195.75Z"/><path class="cls-3" d="M180.5,177.09c-2.15,5.72.06,11.78.06,11.78s5.69-3.19,7.83-8.9-.06-11.78-.06-11.78S182.64,171.38,180.5,177.09Z"/><path class="cls-3" d="M190.68,182.59c-6.06,1.23-10.12,6.28-10.12,6.28s5.76,3.06,11.82,1.84,10.13-6.28,10.13-6.28S196.75,181.37,190.68,182.59Z"/><path class="cls-3" d="M191.56,163.27c-.72,6,2.87,11.43,2.87,11.43s4.77-4.42,5.49-10.47S197,152.8,197,152.8,192.28,157.22,191.56,163.27Z"/><path class="cls-3" d="M202.77,166.26c-5.59,2.59-8.34,8.44-8.34,8.44s6.33,1.65,11.93-.95,8.34-8.44,8.34-8.44S208.37,163.66,202.77,166.26Z"/><path class="cls-3" d="M199.49,147.84c.52,6.07,5.13,10.64,5.13,10.64s3.78-5.26,3.26-11.33-5.13-10.64-5.13-10.64S199,141.77,199.49,147.84Z"/><path class="cls-3" d="M211.09,148.57c-5,3.64-6.47,9.91-6.47,9.91s6.54.37,11.5-3.27,6.47-9.91,6.47-9.91S216.05,144.93,211.09,148.57Z"/><path class="cls-3" d="M204.11,132.25c1.49,5.92,6.78,9.71,6.78,9.71s2.88-5.78,1.4-11.69-6.78-9.71-6.78-9.71S202.63,126.34,204.11,132.25Z"/><path class="cls-3" d="M215.68,131.17c-4.31,4.37-4.79,10.79-4.79,10.79s6.51-.65,10.83-5,4.79-10.79,4.79-10.79S220,126.81,215.68,131.17Z"/><path class="cls-3" d="M204.53,115.5c2.9,5.38,9,7.8,9,7.8s1.37-6.3-1.53-11.68-9-7.81-9-7.81S201.63,110.12,204.53,115.5Z"/><path class="cls-3" d="M215.49,111.68c-3.11,5.27-2,11.62-2,11.62s6.16-2.19,9.27-7.46,2-11.61,2-11.61S218.59,106.42,215.49,111.68Z"/><path class="cls-3" d="M201.29,98c4.1,4.56,10.58,5.51,10.58,5.51s-.17-6.45-4.27-11S197,87,197,87,197.19,93.43,201.29,98Z"/><path class="cls-3" d="M211,91.75c-1.76,5.83.84,11.75.84,11.75s5.47-3.55,7.23-9.39-.84-11.75-.84-11.75S212.79,85.91,211,91.75Z"/><path class="cls-3" d="M195.14,83.84c5.05,3.52,11.57,3,11.57,3s-1.66-6.24-6.71-9.76-11.57-3-11.57-3S190.09,80.33,195.14,83.84Z"/><path class="cls-3" d="M203.17,75.59c-.36,6.07,3.54,11.25,3.54,11.25s4.5-4.69,4.87-10.76S208,64.82,208,64.82,203.54,69.51,203.17,75.59Z"/><path class="cls-3" d="M186.75,70.93c5.56,2.69,11.92,1.15,11.92,1.15s-2.65-5.9-8.2-8.59-11.91-1.15-11.91-1.15S181.2,68.24,186.75,70.93Z"/><path class="cls-3" d="M193.36,61.52c.62,6.06,5.31,10.56,5.31,10.56s3.69-5.33,3.07-11.39-5.31-10.55-5.31-10.55S192.74,55.46,193.36,61.52Z"/><path class="cls-4" d="M182.29,52.35a7.44,7.44,0,0,1-.87.77,2.49,2.49,0,0,1-.3.19c19.41,16.52,31.63,40.44,31.63,67,0,49.75-42.85,90.21-95.53,90.21S21.7,170.05,21.7,120.3C21.7,94.92,32.86,72,50.79,55.55a10.18,10.18,0,0,1-1.54-.6C31.31,71.59,20.16,94.74,20.16,120.3c0,50.55,43.54,91.66,97.06,91.66s97.06-41.11,97.06-91.66C214.28,93.38,201.93,69.13,182.29,52.35Z"/><path class="cls-3" d="M60.29,58.84c-6,1.28-11.84-1.73-11.84-1.73s4-5.09,10.07-6.37,11.84,1.73,11.84,1.73S66.34,57.56,60.29,58.84Z"/><path class="cls-3" d="M56.2,48.14c-2.09,5.73-7.75,9-7.75,9s-2.26-6-.17-11.78,7.75-9,7.75-9S58.29,42.41,56.2,48.14Z"/><path class="cls-3" d="M174.56,58.84c6.05,1.28,11.84-1.73,11.84-1.73s-4-5.09-10.07-6.37-11.84,1.73-11.84,1.73S168.51,57.56,174.56,58.84Z"/><path class="cls-3" d="M178.65,48.14c2.09,5.73,7.75,9,7.75,9s2.26-6,.17-11.78-7.75-9-7.75-9S176.56,42.41,178.65,48.14Z"/><polygon class="cls-3" points="97.79 39.3 89.53 36.92 81.99 41.04 81.69 32.45 75.45 26.56 83.52 23.62 87.2 15.86 92.49 22.63 101.01 23.73 96.2 30.85 97.79 39.3"/><polygon class="cls-3" points="152.72 40.02 159.82 44.85 160.95 36.34 167.75 31.08 160 27.37 157.09 19.28 151.17 25.5 142.58 25.77 146.67 33.32 144.27 41.57 152.72 40.02"/><polygon class="cls-3" points="128.64 38.11 120.84 34.51 112.76 37.43 113.78 28.89 108.5 22.11 116.93 20.44 121.76 13.33 125.95 20.83 134.2 23.22 128.36 29.52 128.64 38.11"/></g></g></svg>