<?xml version="1.0" encoding="utf-8"?>
<!-- Generator: Adobe Illustrator 24.0.2, SVG Export Plug-In . SVG Version: 6.00 Build 0)  -->
<svg version="1.1" id="Layer_1" xmlns="http://www.w3.org/2000/svg" xmlns:xlink="http://www.w3.org/1999/xlink" x="0px" y="0px"
	 viewBox="0 0 800 800" style="enable-background:new 0 0 800 800;" xml:space="preserve">
<style type="text/css">
	.st0{fill:#FFFFFF;}
</style>
<g>
	<path class="st0" d="M733.3,641.7h-41.7v-270c0-16.5-14.2-30-31.7-30h-86.7c-17.5,0-31.7,13.5-31.7,30v270h-50V142.2
		c0-18.7-14.2-33.9-31.7-33.9h-86.7c-17.5,0-31.7,15.2-31.7,33.9v499.4h-50V273.3c0-17.5-14.2-31.7-31.7-31.7H173
		c-17.5,0-31.7,14.2-31.7,31.7v368.3h-75c-13.8,0-25,11.2-25,25s11.2,25,25,25H733c13.8,0,25-11.2,25-25
		C758.3,652.9,747.1,641.7,733.3,641.7z M191.7,291.7h50v350h-50V291.7z M391.7,158.3h50v483.3h-50V158.3z M591.7,391.7h50v250h-50
		V391.7z"/>
</g>
</svg>
