<svg width="378" height="30" viewBox="0 0 378 30" fill="none" xmlns="http://www.w3.org/2000/svg">
<g clip-path="url(#clip0_431_1159)">
<path d="M370.814 7.09308H3.7067C2.19379 4.80494 3.10154 1.98291 4.46315 1.98291H370.738C371.495 1.98291 372.175 2.82189 372.327 4.1185C372.478 5.64393 371.721 7.09308 370.814 7.09308Z" fill="#C6C6C6"/>
<path d="M373.537 9C376.002 9 378 6.98528 378 4.5C378 2.01472 376.002 0 373.537 0C371.072 0 369.074 2.01472 369.074 4.5C369.074 6.98528 371.072 9 373.537 9Z" fill="#C6C6C6"/>
<path d="M299.556 9C302.021 9 304.019 6.98528 304.019 4.5C304.019 2.01472 302.021 0 299.556 0C297.091 0 295.093 2.01472 295.093 4.5C295.093 6.98528 297.091 9 299.556 9Z" fill="#C6C6C6"/>
<path d="M225.726 9C228.191 9 230.189 6.98528 230.189 4.5C230.189 2.01472 228.191 0 225.726 0C223.261 0 221.263 2.01472 221.263 4.5C221.263 6.98528 223.261 9 225.726 9Z" fill="#C6C6C6"/>
<path d="M151.972 9C154.437 9 156.435 6.98528 156.435 4.5C156.435 2.01472 154.437 0 151.972 0C149.507 0 147.509 2.01472 147.509 4.5C147.509 6.98528 149.507 9 151.972 9Z" fill="#C6C6C6"/>
<path d="M78.2172 9C80.6821 9 82.6803 6.98528 82.6803 4.5C82.6803 2.01472 80.6821 0 78.2172 0C75.7523 0 73.7542 2.01472 73.7542 4.5C73.7542 6.98528 75.7523 9 78.2172 9Z" fill="#C6C6C6"/>
<path d="M4.46308 9C6.92797 9 8.92616 6.98528 8.92616 4.5C8.92616 2.01472 6.92797 0 4.46308 0C1.99819 0 0 2.01472 0 4.5C0 6.98528 1.99819 9 4.46308 9Z" fill="#C6C6C6"/>
<path d="M370.814 7.09308H41.5292C40.0163 4.80494 40.924 1.98291 42.2857 1.98291H370.738C371.494 1.98291 372.175 2.82189 372.326 4.1185C372.478 5.64393 371.721 7.09308 370.814 7.09308Z" fill="#00983A"/>
<path d="M373.537 9C376.002 9 378 6.98528 378 4.5C378 2.01472 376.002 0 373.537 0C371.072 0 369.074 2.01472 369.074 4.5C369.074 6.98528 371.072 9 373.537 9Z" fill="#00983A"/>
<path d="M299.556 9C302.021 9 304.019 6.98528 304.019 4.5C304.019 2.01472 302.021 0 299.556 0C297.091 0 295.093 2.01472 295.093 4.5C295.093 6.98528 297.091 9 299.556 9Z" fill="#00983A"/>
<path d="M225.726 9C228.191 9 230.189 6.98528 230.189 4.5C230.189 2.01472 228.191 0 225.726 0C223.261 0 221.263 2.01472 221.263 4.5C221.263 6.98528 223.261 9 225.726 9Z" fill="#00983A"/>
<path d="M151.972 9C154.437 9 156.435 6.98528 156.435 4.5C156.435 2.01472 154.437 0 151.972 0C149.507 0 147.509 2.01472 147.509 4.5C147.509 6.98528 149.507 9 151.972 9Z" fill="#00983A"/>
<path d="M78.2172 9C80.6821 9 82.6803 6.98528 82.6803 4.5C82.6803 2.01472 80.6821 0 78.2172 0C75.7523 0 73.7542 2.01472 73.7542 4.5C73.7542 6.98528 75.7523 9 78.2172 9Z" fill="#00983A"/>
<path d="M41.3024 9C43.7673 9 45.7655 6.98528 45.7655 4.5C45.7655 2.01472 43.7673 0 41.3024 0C38.8375 0 36.8394 2.01472 36.8394 4.5C36.8394 6.98528 38.8375 9 41.3024 9Z" fill="#00983A"/>
</g>
<path d="M34.8807 18.1534C35.3295 18.1534 35.7614 18.2287 36.1761 18.3793C36.5938 18.5298 36.9659 18.7699 37.2926 19.0994C37.6222 19.429 37.8821 19.8665 38.0724 20.4119C38.2656 20.9545 38.3636 21.6207 38.3665 22.4105C38.3665 23.152 38.2827 23.8139 38.1151 24.3963C37.9503 24.9759 37.7131 25.4688 37.4034 25.875C37.0938 26.2812 36.7202 26.5909 36.2827 26.804C35.8452 27.0142 35.3565 27.1193 34.8168 27.1193C34.2344 27.1193 33.7202 27.0071 33.2741 26.7827C32.8281 26.5554 32.4688 26.2472 32.196 25.858C31.9261 25.4659 31.7628 25.0256 31.706 24.5369H33.5256C33.5966 24.8551 33.7457 25.1023 33.973 25.2784C34.2003 25.4517 34.4815 25.5384 34.8168 25.5384C35.3849 25.5384 35.8168 25.2912 36.1122 24.7969C36.4077 24.2997 36.5568 23.6193 36.5597 22.7557H36.5C36.3693 23.0114 36.1932 23.2315 35.9716 23.4162C35.75 23.598 35.4957 23.7386 35.2088 23.8381C34.9247 23.9375 34.6222 23.9872 34.3011 23.9872C33.7869 23.9872 33.3281 23.8665 32.9247 23.625C32.5213 23.3835 32.2031 23.0511 31.9702 22.6278C31.7372 22.2045 31.6207 21.7216 31.6207 21.179C31.6179 20.5938 31.7528 20.0724 32.0256 19.6151C32.2983 19.1577 32.679 18.7997 33.1676 18.5412C33.6591 18.2798 34.2301 18.1506 34.8807 18.1534ZM34.8935 19.6023C34.6065 19.6023 34.3509 19.6705 34.1264 19.8068C33.9048 19.9432 33.7287 20.1264 33.598 20.3565C33.4702 20.5866 33.4077 20.8437 33.4105 21.1278C33.4105 21.4148 33.473 21.6733 33.598 21.9034C33.7259 22.1307 33.8991 22.3125 34.1179 22.4489C34.3395 22.5824 34.5923 22.6491 34.8764 22.6491C35.0895 22.6491 35.2869 22.6094 35.4688 22.5298C35.6506 22.4503 35.8082 22.3409 35.9418 22.2017C36.0781 22.0597 36.1847 21.8963 36.2614 21.7116C36.3381 21.527 36.3764 21.331 36.3764 21.1236C36.3736 20.848 36.3082 20.5952 36.1804 20.3651C36.0526 20.1349 35.8764 19.9503 35.652 19.8111C35.4276 19.6719 35.1747 19.6023 34.8935 19.6023ZM42.8324 27.1193C42.2301 27.1193 41.6932 27.0085 41.2216 26.7869C40.7528 26.5653 40.3807 26.2599 40.1051 25.8707C39.8295 25.4815 39.6861 25.0355 39.6747 24.5327H41.4645C41.4844 24.8707 41.6264 25.1449 41.8906 25.3551C42.1548 25.5653 42.4688 25.6705 42.8324 25.6705C43.1222 25.6705 43.3778 25.6065 43.5994 25.4787C43.8239 25.348 43.9986 25.1676 44.1236 24.9375C44.2514 24.7045 44.3153 24.4375 44.3153 24.1364C44.3153 23.8295 44.25 23.5597 44.1193 23.3267C43.9915 23.0937 43.8139 22.9119 43.5866 22.7812C43.3594 22.6506 43.0994 22.5838 42.8068 22.581C42.5511 22.581 42.3026 22.6335 42.0611 22.7386C41.8224 22.8437 41.6364 22.9872 41.5028 23.169L39.8622 22.875L40.2756 18.2727H45.6108V19.7812H41.7969L41.571 21.9673H41.6222C41.7756 21.7514 42.0071 21.5724 42.3168 21.4304C42.6264 21.2884 42.973 21.2173 43.3565 21.2173C43.8821 21.2173 44.3509 21.3409 44.7628 21.5881C45.1747 21.8352 45.5 22.1747 45.7386 22.6065C45.9773 23.0355 46.0952 23.5298 46.0923 24.0895C46.0952 24.6776 45.9588 25.2003 45.6832 25.6577C45.4105 26.1122 45.0284 26.4702 44.5369 26.7315C44.0483 26.9901 43.4801 27.1193 42.8324 27.1193ZM52.1562 25.3636V24.9034C52.1562 24.554 52.2301 24.233 52.3778 23.9403C52.5284 23.6449 52.7457 23.4091 53.0298 23.233C53.3168 23.054 53.6662 22.9645 54.0781 22.9645C54.4957 22.9645 54.8466 23.0526 55.1307 23.2287C55.4176 23.4048 55.6335 23.6406 55.7784 23.9361C55.9261 24.2287 56 24.5511 56 24.9034V25.3636C56 25.7131 55.9261 26.0355 55.7784 26.331C55.6307 26.6236 55.4134 26.858 55.1264 27.0341C54.8395 27.2131 54.4901 27.3026 54.0781 27.3026C53.6605 27.3026 53.3097 27.2131 53.0256 27.0341C52.7415 26.858 52.5256 26.6236 52.3778 26.331C52.2301 26.0355 52.1562 25.7131 52.1562 25.3636ZM53.3963 24.9034V25.3636C53.3963 25.5653 53.4446 25.7557 53.5412 25.9347C53.6406 26.1136 53.8196 26.2031 54.0781 26.2031C54.3366 26.2031 54.5128 26.1151 54.6065 25.9389C54.7031 25.7628 54.7514 25.571 54.7514 25.3636V24.9034C54.7514 24.696 54.706 24.5028 54.6151 24.3239C54.5241 24.1449 54.3452 24.0554 54.0781 24.0554C53.8224 24.0554 53.6449 24.1449 53.5455 24.3239C53.446 24.5028 53.3963 24.696 53.3963 24.9034ZM47.6776 20.3693V19.9091C47.6776 19.5568 47.7528 19.2344 47.9034 18.9418C48.054 18.6463 48.2713 18.4105 48.5554 18.2344C48.8423 18.0582 49.1889 17.9702 49.5952 17.9702C50.0156 17.9702 50.3679 18.0582 50.652 18.2344C50.9361 18.4105 51.152 18.6463 51.2997 18.9418C51.4474 19.2344 51.5213 19.5568 51.5213 19.9091V20.3693C51.5213 20.7216 51.446 21.044 51.2955 21.3366C51.1477 21.6293 50.9304 21.8636 50.6435 22.0398C50.3594 22.2131 50.0099 22.2997 49.5952 22.2997C49.1804 22.2997 48.8295 22.2116 48.5426 22.0355C48.2585 21.8565 48.0426 21.6222 47.8949 21.3324C47.75 21.0398 47.6776 20.7187 47.6776 20.3693ZM48.9261 19.9091V20.3693C48.9261 20.5767 48.9744 20.7685 49.071 20.9446C49.1705 21.1207 49.3452 21.2088 49.5952 21.2088C49.8565 21.2088 50.0341 21.1207 50.1278 20.9446C50.2244 20.7685 50.2727 20.5767 50.2727 20.3693V19.9091C50.2727 19.7017 50.2273 19.5085 50.1364 19.3295C50.0455 19.1506 49.8651 19.0611 49.5952 19.0611C49.3423 19.0611 49.1676 19.152 49.071 19.3338C48.9744 19.5156 48.9261 19.7074 48.9261 19.9091ZM48.2401 27L54.2401 18.2727H55.3565L49.3565 27H48.2401Z" fill="#00983A"/>
<defs>
<clipPath id="clip0_431_1159">
<rect width="378" height="9" fill="white"/>
</clipPath>
</defs>
</svg>
