<svg width="18" height="12" viewBox="0 0 18 12" fill="none" xmlns="http://www.w3.org/2000/svg">
<g clip-path="url(#clip0_1_13110)">
<path d="M9 0C14.625 0 18 6 18 6C18 6 14.625 12 9 12C3.375 12 0 6 0 6C0 6 3.375 0 9 0ZM9 1.09091C5.04 1.09091 2.24775 4.63855 1.323 6C2.24775 7.36145 5.04 10.9091 9 10.9091C12.96 10.9091 15.7523 7.36364 16.6793 6C15.7545 4.63855 12.96 1.09091 9 1.09091ZM9 2.18182C11.1735 2.18182 12.9375 3.89236 12.9375 6C12.9375 8.10764 11.1735 9.81818 9 9.81818C6.8265 9.81818 5.0625 8.10764 5.0625 6C5.0625 3.89236 6.8265 2.18182 9 2.18182ZM9 3.27273C7.4475 3.27491 6.18975 4.49455 6.1875 6C6.1875 7.50327 7.44975 8.72727 9 8.72727C10.5503 8.72727 11.8125 7.50327 11.8125 6C11.8125 4.49673 10.5503 3.27273 9 3.27273Z" fill="black"/>
</g>
<defs>
<clipPath id="clip0_1_13110">
<rect width="18" height="12" fill="white"/>
</clipPath>
</defs>
</svg>
