<svg width="79" height="61" viewBox="0 0 79 61" fill="none" xmlns="http://www.w3.org/2000/svg">
<g clip-path="url(#clip0_96_18889)">
<path d="M78.812 1.74558C78.3773 0.620068 77.4008 -0.0471505 76.217 2.65685e-05C75.1336 0.0404641 74.0568 0.909871 73.7558 1.97473C73.4482 3.0598 73.8829 4.21227 74.846 4.87949C75.7622 5.51975 76.9996 5.46583 77.9359 4.78513C78.4643 4.40098 78.7184 3.83485 78.9792 3.27547C78.9792 2.87783 78.9792 2.48019 78.9792 2.08256C78.8254 2.0219 78.8522 1.86015 78.812 1.74558Z" fill="white"/>
<path d="M78.8125 9.68482C78.3444 8.53909 77.0669 7.94601 75.9367 8.35038C74.7127 8.78846 74.0506 10.0892 74.4318 11.2956C74.8264 12.5154 76.0704 13.1759 77.2876 12.8389C78.1839 12.5896 78.652 11.9426 78.9731 11.1271C78.9731 10.7632 78.9731 10.3992 78.9731 10.0353C78.846 9.9544 78.8594 9.80613 78.8125 9.68482Z" fill="white"/>
<path d="M76.1706 15.9257C75.154 16.3233 74.5521 17.4892 74.8531 18.5002C75.154 19.5179 76.1907 20.1649 77.214 19.9964C78.1503 19.8414 78.6319 19.1944 78.9729 18.3856C78.9729 18.0554 78.9729 17.7251 78.9729 17.3949C78.8927 17.2331 78.8191 17.0781 78.7322 16.9164C78.2506 15.9796 77.127 15.5482 76.1706 15.9257Z" fill="white"/>
<path d="M2.63473 5.3512C3.83859 5.34446 5.15615 3.74718 5.15615 2.29817C5.15615 1.04461 4.02586 -0.0067684 2.68155 -2.8812e-05C1.25029 0.00671077 0.0263672 1.26701 0.0263672 2.72276C0.0263672 4.15156 1.21685 5.35794 2.63473 5.3512Z" fill="white"/>
<path d="M69.7771 0.983979C68.4461 0.97724 67.3426 2.04883 67.3292 3.37653C67.3159 4.71771 68.3726 5.81626 69.7102 5.84322C71.0211 5.87018 72.138 4.77163 72.158 3.43719C72.1781 2.08253 71.1214 0.990719 69.7771 0.983979Z" fill="white"/>
<path d="M63.2088 2.18362C61.8846 2.19036 60.8078 3.28892 60.8145 4.63009C60.8212 5.96453 61.9247 7.05635 63.2423 7.04961C64.5665 7.04287 65.65 5.93084 65.6366 4.5964C65.6232 3.26196 64.5331 2.17689 63.2088 2.18362Z" fill="white"/>
<path d="M15.7836 7.21811C17.1078 7.23833 18.198 6.14651 18.2047 4.7986C18.2114 3.45068 17.148 2.37909 15.8036 2.37235C14.466 2.36561 13.3825 3.4372 13.3692 4.77838C13.3625 6.0926 14.4526 7.19789 15.7836 7.21811Z" fill="white"/>
<path d="M9.26233 1.2334C7.93809 1.26035 6.84124 2.37913 6.85461 3.68661C6.8613 5.03452 7.93809 6.0859 9.28909 6.07916C10.6535 6.07242 11.6834 5.02104 11.6767 3.65291C11.6701 2.30499 10.5732 1.20644 9.26233 1.2334Z" fill="white"/>
<path d="M2.36724 8.4245C1.10319 8.4245 0.0330871 9.48935 0.026399 10.7429C0.0197108 12.0437 1.06974 13.1018 2.36724 13.1018C3.69149 13.1018 4.68133 12.0841 4.67464 10.7294C4.67464 9.41522 3.67811 8.4245 2.36724 8.4245Z" fill="white"/>
<path d="M69.5561 8.65366C68.4058 8.65366 67.4561 9.61068 67.4561 10.7699C67.4561 11.9224 68.4125 12.8996 69.5494 12.9063C70.7199 12.9131 71.6829 11.9426 71.6763 10.7632C71.6696 9.61068 70.7065 8.64692 69.5561 8.65366Z" fill="white"/>
<path d="M9.2689 13.0816C10.4259 13.0951 11.389 12.1043 11.3757 10.9182C11.3623 9.75223 10.4259 8.83564 9.25552 8.84238C8.09179 8.84912 7.16214 9.79267 7.16214 10.9586C7.15546 12.0909 8.13861 13.0748 9.2689 13.0816Z" fill="white"/>
<path d="M4.24657 18.0823C4.24657 16.9433 3.32361 15.9931 2.19332 15.9796C1.01621 15.9661 0.0263672 16.9231 0.0263672 18.0756C0.0263672 19.2281 0.935951 20.1649 2.07293 20.1716C3.2701 20.1851 4.24657 19.2483 4.24657 18.0823Z" fill="white"/>
<path d="M22.1643 8.55257C23.3214 8.55257 24.2176 7.64272 24.2109 6.47004C24.2042 5.33779 23.2946 4.40772 22.1844 4.39424C21.0675 4.38076 20.1044 5.35126 20.0977 6.47678C20.091 7.62924 21.014 8.55257 22.1643 8.55257Z" fill="white"/>
<path d="M56.8624 4.25269C55.6986 4.25269 54.7891 5.15579 54.7891 6.315C54.7891 7.47421 55.712 8.39079 56.8624 8.38405C57.9726 8.37731 58.9156 7.44051 58.9223 6.33522C58.929 5.17601 58.0194 4.25269 56.8624 4.25269Z" fill="white"/>
<path d="M69.5898 15.9055C68.4997 15.892 67.5566 16.8221 67.5566 17.8937C67.5566 18.9922 68.513 19.956 69.6032 19.9492C70.6599 19.9425 71.5628 19.0259 71.5762 17.9476C71.5762 16.8423 70.68 15.9122 69.5898 15.9055Z" fill="white"/>
<path d="M9.68394 16.0874C8.57372 16.0807 7.71764 16.9366 7.70426 18.0487C7.69088 19.2146 8.52021 20.0705 9.65719 20.0773C10.7808 20.084 11.6569 19.2416 11.6703 18.1498C11.6904 16.9973 10.8209 16.0942 9.68394 16.0874Z" fill="white"/>
<path d="M62.8615 9.9409C61.7914 9.95438 60.9152 10.8373 60.9219 11.9021C60.9286 12.967 61.8181 13.8701 62.8682 13.8768C63.9316 13.8836 64.8478 12.9468 64.8345 11.8684C64.8278 10.8036 63.9316 9.93416 62.8615 9.9409Z" fill="white"/>
<path d="M18.0848 12.0976C18.0914 10.9923 17.2287 10.1229 16.1185 10.1296C15.0417 10.1296 14.1789 10.999 14.1856 12.0841C14.1923 13.1692 15.0417 14.0251 16.1251 14.0251C17.2153 14.0251 18.0781 13.1759 18.0848 12.0976Z" fill="white"/>
<path d="M56.4471 12.32C55.5375 12.32 54.8085 13.0277 54.7951 13.924C54.7817 14.8271 55.504 15.582 56.3936 15.5887C57.2831 15.5954 58.0322 14.8608 58.0455 13.9712C58.0589 13.0614 57.3433 12.32 56.4471 12.32Z" fill="white"/>
<path d="M24.2107 14.1127C24.2107 13.1894 23.5085 12.4952 22.5788 12.5019C21.6759 12.5087 20.9536 13.25 20.967 14.1599C20.9804 15.0225 21.7227 15.7572 22.5922 15.7639C23.4817 15.7706 24.2107 15.0293 24.2107 14.1127Z" fill="white"/>
<path d="M61.9579 17.7925C61.0617 17.7858 60.3193 18.5204 60.3193 19.4235C60.3193 20.3334 61.0417 21.0612 61.9445 21.0612C62.8207 21.0612 63.5564 20.3401 63.5631 19.4639C63.5764 18.5676 62.8474 17.806 61.9579 17.7925Z" fill="white"/>
<path d="M15.4493 19.6055C15.4426 20.4816 16.2117 21.2499 17.0945 21.2499C17.964 21.2499 18.6796 20.5221 18.693 19.6392C18.6997 18.7159 18.0041 17.988 17.0945 17.988C16.1783 17.9745 15.456 18.6889 15.4493 19.6055Z" fill="white"/>
<path d="M28.27 10.5273C29.1528 10.5407 29.8751 9.82635 29.8751 8.93672C29.8751 8.04036 29.1796 7.3327 28.2901 7.3327C27.4072 7.3327 26.6916 8.05384 26.6983 8.93672C26.705 9.79265 27.4273 10.5138 28.27 10.5273Z" fill="white"/>
<path d="M50.7553 7.1507C49.8725 7.13722 49.1435 7.85162 49.1368 8.72776C49.1301 9.61739 49.8256 10.325 50.7219 10.3318C51.6114 10.3385 52.3203 9.63087 52.3203 8.74124C52.3136 7.89205 51.6047 7.17092 50.7553 7.1507Z" fill="white"/>
<path d="M28.7319 15.5348C27.8959 15.5348 27.2404 16.2087 27.2471 17.0579C27.2538 17.8936 27.936 18.5676 28.7586 18.5541C29.5345 18.5406 30.2233 17.8128 30.21 17.031C30.1966 16.2222 29.5144 15.528 28.7319 15.5348Z" fill="white"/>
<path d="M50.2742 15.3865C49.4649 15.3932 48.8095 16.0537 48.8028 16.8692C48.7961 17.6645 49.5184 18.3789 50.3277 18.3721C51.1102 18.3654 51.8057 17.651 51.7991 16.8692C51.7857 16.0335 51.1169 15.373 50.2742 15.3865Z" fill="white"/>
<path d="M34.1028 13.7016C34.8318 13.7016 35.4538 13.0681 35.4471 12.3402C35.4404 11.5989 34.8251 10.9856 34.0961 10.9991C33.347 11.0125 32.7451 11.6124 32.7451 12.3537C32.7451 13.0816 33.3671 13.7016 34.1028 13.7016Z" fill="white"/>
<path d="M44.9504 10.8238C44.1879 10.817 43.5659 11.4438 43.5793 12.1987C43.5927 12.9063 44.1879 13.5061 44.9036 13.5196C45.6393 13.5331 46.2613 12.9333 46.2746 12.1919C46.288 11.464 45.6727 10.8238 44.9504 10.8238Z" fill="white"/>
<path d="M44.6089 19.3629C43.9334 19.3696 43.3983 19.9155 43.3917 20.6029C43.385 21.2836 43.9668 21.8565 44.6624 21.8498C45.3312 21.843 45.8796 21.2769 45.8796 20.6029C45.8796 19.9155 45.3111 19.3561 44.6089 19.3629Z" fill="white"/>
<path d="M34.3896 19.5314C33.6806 19.5381 33.1389 20.0975 33.1456 20.7984C33.1589 21.4656 33.7207 22.0318 34.3829 22.0318C35.0717 22.0318 35.6536 21.4387 35.6269 20.758C35.6068 20.084 35.045 19.5246 34.3896 19.5314Z" fill="white"/>
<path d="M39.5268 15.0024C38.8313 14.9822 38.2494 15.5281 38.2226 16.2155C38.1959 16.9164 38.7309 17.4825 39.4399 17.496C40.1622 17.5095 40.6972 16.9973 40.7039 16.2762C40.7106 15.5752 40.1956 15.0226 39.5268 15.0024Z" fill="white"/>
<path d="M39.5063 24.2356C38.8642 24.2356 38.3225 24.7613 38.3292 25.3813C38.3359 25.9811 38.8642 26.5068 39.4728 26.5136C40.0948 26.5203 40.5831 26.0216 40.5964 25.3813C40.6098 24.7411 40.1283 24.2356 39.5063 24.2356Z" fill="white"/>
<path d="M55.1895 20.9938C54.5876 20.9938 54.0458 21.5263 54.0391 22.1261C54.0324 22.7461 54.5407 23.2583 55.156 23.2651C55.8048 23.2651 56.2796 22.7933 56.2796 22.153C56.2863 21.5128 55.7981 20.9938 55.1895 20.9938Z" fill="white"/>
<path d="M23.856 21.1758C23.2474 21.169 22.7391 21.6813 22.719 22.308C22.7056 22.9348 23.2006 23.4403 23.8226 23.447C24.4379 23.4538 24.9662 22.9416 24.9729 22.3283C24.9796 21.7217 24.4512 21.1758 23.856 21.1758Z" fill="white"/>
<path d="M29.8088 54.53C29.4275 54.5233 29.4409 54.7322 29.4342 54.995C29.4209 55.7903 29.4008 56.5788 29.354 57.3741C29.3205 57.8796 28.9727 58.1829 28.4778 58.2098C28.0565 58.23 27.6953 57.9605 27.5883 57.5022C27.5281 57.2461 27.4947 56.9832 27.488 56.7204C27.4746 56.1273 27.4813 55.5275 27.488 54.9344C27.4947 54.6918 27.4679 54.5367 27.1536 54.53C26.8259 54.5233 26.779 54.6715 26.7857 54.9479C26.7991 55.6083 26.7857 56.2688 26.7924 56.9293C26.8058 58.102 27.3743 58.6209 28.5447 58.6344C28.8189 58.6344 29.1667 58.3311 29.3406 58.6412C29.4677 58.8703 29.3673 59.2208 29.3673 59.5173C29.3673 59.7195 29.3272 59.9082 29.2336 60.0902C29.1333 60.2991 28.9727 60.4811 28.7587 60.4811C28.3641 60.4878 28.3708 60.7372 28.3641 61C28.4979 61 28.625 61 28.7587 61C30.0161 60.4676 30.1365 60.2789 30.1365 58.8501C30.1365 57.5628 30.1365 56.2688 30.1365 54.9816C30.1365 54.7457 30.1766 54.5367 29.8088 54.53Z" fill="white"/>
<path d="M45.9066 37.6204C45.9066 37.3306 45.8063 37.2362 45.5321 37.2632C45.405 37.2767 45.2646 37.2834 45.1375 37.2632C44.6961 37.1891 44.5958 37.371 44.5958 37.8024C44.6225 39.7568 44.5958 41.7113 44.6158 43.6591C44.6158 44.023 44.5289 44.1578 44.1477 44.1443C43.4254 44.1173 42.703 44.1241 41.9807 44.1443C41.6798 44.151 41.5326 44.0904 41.546 43.7399C41.5661 42.7964 41.5594 41.8528 41.5527 40.9093C41.5393 39.9455 41.7333 40.1006 40.73 40.0601C40.3622 40.0466 40.2953 40.1882 40.302 40.5184C40.3221 41.563 40.2886 42.6077 40.3154 43.6456C40.3221 44.0297 40.2218 44.1443 39.8272 44.1443C36.3092 44.1308 32.7913 44.1376 29.2733 44.1376C27.9892 44.1376 27.9892 44.1376 28.0093 42.8368C28.0293 41.7383 28.6513 41.125 29.7415 41.1182C31.3199 41.1115 32.8983 41.1048 34.4767 41.125C34.8913 41.1317 34.8846 40.9093 34.8646 40.6262C34.8445 40.3769 34.9916 40.0534 34.4967 40.0601C32.818 40.0803 31.1393 40.0466 29.4673 40.0736C27.9691 40.1005 26.8656 41.1991 26.772 42.702C26.7519 43.0188 26.7318 43.3356 26.7653 43.6456C26.8054 44.0499 26.6449 44.1443 26.2637 44.1443C23.2741 44.1308 20.2778 44.1241 17.2882 44.151C16.8669 44.151 16.8134 43.996 16.82 43.6388C16.8334 41.7517 16.8267 39.8647 16.8267 37.9776C16.8267 37.2699 16.8267 37.2969 16.1245 37.2564C15.6764 37.2295 15.5827 37.3778 15.5894 37.8091C15.6095 39.7636 15.5894 41.7181 15.6095 43.6658C15.6095 44.0297 15.5159 44.1578 15.1413 44.1443C14.3053 44.1173 13.4626 44.1241 12.6266 44.1443C12.2922 44.151 12.1718 44.0702 12.1785 43.7062C12.2052 42.7829 12.1852 41.8528 12.1852 40.9228C12.1852 40.0399 12.1852 40.0601 11.3291 40.0534C10.9813 40.0534 10.9211 40.1814 10.9278 40.4914C10.9479 41.253 10.9412 42.0146 10.9278 42.7762C10.9211 43.2008 11.1084 43.7534 10.8542 44.023C10.5733 44.3195 10.0115 44.1106 9.57681 44.1241C8.6271 44.1443 8.6271 44.1308 8.62041 43.1738C8.60704 41.125 7.55032 40.0669 5.50375 40.0601C4.15275 40.0534 2.80844 40.0803 1.45744 40.0466C1.01603 40.0399 0.86889 40.1477 0.882267 40.6195C0.915707 42.2707 0.909019 43.9286 0.888955 45.5866C0.882267 46.1729 0.788633 46.739 0.15995 47.0491C-0.0808219 47.1704 0.0194998 47.4871 0.0796929 47.6826C0.133198 47.8646 0.333841 47.723 0.467603 47.6961C1.43069 47.4669 1.97243 46.7997 2.10619 45.8696C2.19314 45.3035 2.42722 45.2226 2.92883 45.2226C9.96473 45.2361 17.0006 45.2361 24.0432 45.2361C29.8485 45.2361 35.6538 45.2361 41.4591 45.2361C42.8101 45.2361 44.1544 45.2294 45.5054 45.2429C45.7729 45.2429 45.9267 45.2092 45.92 44.8722C45.8933 42.4594 45.8933 40.0399 45.9066 37.6204ZM6.9952 44.1443C6.25282 44.1308 5.51713 44.1376 4.77475 44.1376C4.03237 44.1376 3.29668 44.1241 2.5543 44.1443C2.27339 44.151 2.18645 44.0567 2.18645 43.7736C2.19983 43.0121 2.19983 42.2505 2.17976 41.4889C2.17307 41.2261 2.23327 41.1047 2.53423 41.1115C3.63777 41.125 4.73462 41.1048 5.83816 41.125C6.65411 41.1384 7.26273 41.7652 7.32292 42.6212C7.34967 43.0188 7.31623 43.4164 7.3363 43.8141C7.35636 44.0836 7.24266 44.1443 6.9952 44.1443Z" fill="white"/>
<path d="M77.7023 45.4046C77.8762 46.0044 77.5083 47.0154 76.9532 47.2378C76.5987 47.3793 76.6991 47.6422 76.7325 47.8443C76.7793 48.1139 77.0268 47.9724 77.1739 47.9454C78.244 47.723 78.953 46.8199 78.9864 45.5933C79.0132 44.7509 78.9931 43.9017 78.9931 43.0592C78.9931 42.1966 78.9864 41.3406 78.9998 40.478C79.0065 40.2016 78.9596 40.0601 78.6319 40.0601C77.301 40.0803 75.9701 40.0466 74.6391 40.0736C73.1343 40.1073 72.0508 41.1856 71.9706 42.7088C71.9371 43.3827 71.9773 44.0634 71.9438 44.7441C71.9238 45.1215 72.0241 45.2496 72.4254 45.2429C74.0372 45.2159 75.649 45.2294 77.2609 45.2361C77.408 45.2429 77.622 45.135 77.7023 45.4046ZM75.4216 44.1376C74.7996 44.1376 74.171 44.1241 73.549 44.1443C73.2681 44.151 73.1611 44.0567 73.1811 43.7736C73.2146 43.2951 73.1343 42.8166 73.2413 42.3381C73.4018 41.6304 73.9569 41.1385 74.6726 41.125C75.5755 41.1048 76.4784 41.125 77.3879 41.1115C77.6421 41.1048 77.7357 41.1856 77.729 41.4485C77.7157 42.2235 77.709 43.0053 77.729 43.7804C77.7357 44.0769 77.622 44.1443 77.3545 44.1376C76.7058 44.1308 76.0637 44.1376 75.4216 44.1376Z" fill="white"/>
<path d="M60.3127 44.8789C60.2994 43.3895 60.2994 41.9 60.3127 40.4106C60.3127 40.1477 60.2258 40.0669 59.9716 40.0669C58.5939 40.0736 57.2095 40.0399 55.8317 40.0803C54.3135 40.1275 53.2568 41.2935 53.2434 42.8368C53.2367 43.4838 53.2635 44.1308 53.2367 44.7711C53.2233 45.1283 53.3036 45.2563 53.6915 45.2496C54.7282 45.2226 55.7648 45.2429 56.7948 45.2429C57.8315 45.2429 58.8681 45.2361 59.8981 45.2496C60.1589 45.2429 60.3127 45.2159 60.3127 44.8789ZM58.6875 44.1443C58.0455 44.1308 57.4034 44.1376 56.7614 44.1376C56.1394 44.1376 55.5107 44.1241 54.8887 44.1443C54.6011 44.151 54.4673 44.0769 54.4874 43.7602C54.5141 43.349 54.4807 42.9312 54.5008 42.5201C54.5409 41.7518 55.1428 41.1452 55.9053 41.1317C56.8416 41.1115 57.7779 41.1317 58.7143 41.1182C58.9684 41.1115 59.0554 41.1924 59.0487 41.4552C59.0353 42.2303 59.0286 43.0121 59.0487 43.7871C59.0621 44.0769 58.9551 44.151 58.6875 44.1443Z" fill="white"/>
<path d="M5.81857 53.2697C5.5176 53.263 5.17651 53.1147 4.97587 53.5528C4.51439 54.557 3.9994 55.541 3.51117 56.5317C3.37072 56.8215 3.22358 57.1046 3.05638 57.4415C2.95606 57.2528 2.88918 57.145 2.82898 57.0237C2.24043 55.8577 1.6385 54.7053 1.07001 53.5258C0.869365 53.1215 0.548336 53.2832 0.260747 53.2563C0.0400391 53.236 0.0400391 53.4045 0.0400391 53.5595C0.0400391 55.1501 0.0400391 56.7339 0.0400391 58.3244C0.0400391 58.5401 0.126985 58.6007 0.327628 58.6142C0.682098 58.6412 0.822548 58.5536 0.81586 58.1559C0.789108 57.1517 0.802484 56.1341 0.802484 55.0625C1.0165 55.1973 1.04994 55.3657 1.12351 55.5005C1.59168 56.4104 2.05316 57.327 2.52133 58.2368C2.60828 58.4053 2.64172 58.6142 2.91593 58.621C3.19014 58.6277 3.23027 58.4188 3.31053 58.2503C3.85895 57.1383 4.40069 56.0262 4.94912 54.9142C4.99593 54.8131 4.99593 54.6513 5.18989 54.6513C5.18989 55.8375 5.20326 57.0102 5.1832 58.1829C5.17651 58.5333 5.29021 58.6277 5.6313 58.6344C5.97908 58.6412 6.03928 58.5064 6.03928 58.1964C6.0259 56.7204 6.03928 55.2512 6.0259 53.7752C6.0259 53.5932 6.16635 53.2832 5.81857 53.2697Z" fill="white"/>
<path d="M61.5367 48.0263C62.7339 47.9791 63.5766 47.2445 63.7906 45.9977C63.9645 45.0002 63.8107 43.9825 63.8575 43.2546C63.8575 42.2841 63.8575 41.59 63.8575 40.8958C63.8575 40.0601 63.8575 40.0803 63.0148 40.0668C62.667 40.0601 62.5667 40.1679 62.5734 40.5116C62.5934 41.4552 62.5801 42.3987 62.5734 43.3423C62.56 44.2858 62.6202 45.2293 62.5199 46.1661C62.4463 46.894 62.1788 47.1973 61.4632 47.3119C61.1555 47.3658 61.209 47.5275 61.2157 47.7297C61.2157 47.9589 61.2959 48.033 61.5367 48.0263Z" fill="white"/>
<path d="M70.3512 43.349C70.3512 42.1831 70.3378 41.3609 70.3579 40.5319C70.3646 40.2084 70.2977 40.0534 69.9299 40.0668C68.8999 40.1073 69.1005 39.9455 69.0738 40.9363C69.0671 41.098 69.0738 41.2665 69.0738 41.435C69.0604 42.9716 69.0671 44.5082 69.027 46.0449C69.0069 46.8671 68.7327 47.1704 67.9435 47.3186C67.6292 47.3793 67.7161 47.5545 67.7161 47.75C67.7228 48.0061 67.8365 48.033 68.0572 48.0196C69.2677 47.9522 70.1038 47.2176 70.2977 45.9842C70.4515 44.9935 70.3178 43.996 70.3512 43.349Z" fill="white"/>
<path d="M65.7639 41.2328C65.7639 42.4392 65.7773 43.6456 65.7572 44.852C65.7506 45.1552 65.8308 45.2833 66.1385 45.2429C66.2522 45.2294 66.3725 45.2226 66.4796 45.2429C66.921 45.317 67.028 45.135 67.0213 44.697C67.0012 42.4998 67.0146 40.296 67.0079 38.0989C67.0012 37.1284 67.1818 37.2969 66.1853 37.2564C65.8241 37.243 65.7506 37.371 65.7572 37.708C65.7773 38.8807 65.7639 40.0534 65.7639 41.2328Z" fill="white"/>
<path d="M48.2078 45.2428C48.3014 45.2293 48.4084 45.2293 48.5021 45.2428C48.9033 45.3035 48.9836 45.1215 48.9836 44.7441C48.9702 42.5268 48.9769 40.3162 48.9769 38.0989C48.9769 37.2497 48.9769 37.2699 48.1476 37.2564C47.7864 37.2497 47.7129 37.3777 47.7129 37.7147C47.7329 38.9076 47.7195 40.0938 47.7195 41.2867C47.7195 42.4459 47.7396 43.5984 47.7129 44.7576C47.6995 45.1552 47.8266 45.2967 48.2078 45.2428Z" fill="white"/>
<path d="M50.1673 55.9723C50.1673 55.2242 50.1606 54.4828 50.174 53.7347C50.1807 53.4382 50.1673 53.2427 49.7727 53.2427C49.3446 53.2427 49.3848 53.4854 49.3915 53.7549C49.3981 53.9032 49.3781 54.0515 49.3915 54.1998C49.4115 54.4626 49.3045 54.5502 49.0504 54.5435C48.7026 54.53 48.3615 54.5367 48.0137 54.5435C46.9436 54.5502 46.3082 55.0759 46.1678 56.1408C46.0006 57.4685 46.5089 58.7288 48.2277 58.6209C48.7494 58.5872 49.2778 58.6007 49.8061 58.6209C50.087 58.6277 50.174 58.5266 50.174 58.2502C50.1539 57.4954 50.1673 56.7338 50.1673 55.9723ZM49.0169 58.2233C48.7093 58.1963 48.3949 58.2233 48.0873 58.2166C47.4787 58.2031 47.064 57.8257 47.0306 57.2124C47.0038 56.7878 47.0038 56.3564 47.0306 55.9251C47.064 55.3387 47.472 54.9613 48.0472 54.9344C49.3915 54.8737 49.3915 54.8737 49.3915 56.2351C49.3915 56.3497 49.3915 56.4643 49.3915 56.5788C49.3915 56.9899 49.3781 57.4011 49.3981 57.8122C49.4048 58.1155 49.3313 58.2503 49.0169 58.2233Z" fill="white"/>
<path d="M63.7705 54.53C63.1953 54.557 62.6201 54.5367 62.0449 54.5435C60.9548 54.557 60.3328 55.0961 60.1656 56.1677C59.9716 57.4011 60.5401 58.412 61.5701 58.5872C62.065 58.6749 62.58 58.6883 63.0816 58.5198C63.2421 58.4659 63.3558 58.4188 63.5498 58.567C63.9176 58.8366 64.2654 58.6007 64.2721 58.1492C64.2721 57.637 64.2721 57.1248 64.2721 56.6125C64.2721 56.0869 64.2453 55.5544 64.2788 55.0287C64.3055 54.6041 64.145 54.5098 63.7705 54.53ZM63.4829 57.0911C63.4361 57.8526 63.008 58.23 62.2188 58.2233C61.4631 58.2166 61.0618 57.8324 61.035 57.0708C61.0217 56.7069 61.015 56.343 61.0417 55.979C61.0885 55.3253 61.4831 54.9681 62.1319 54.9479C62.1787 54.9479 62.2322 54.9479 62.279 54.9479C63.4829 54.9411 63.4829 54.9411 63.4829 56.1543C63.4829 56.4575 63.4963 56.7743 63.4829 57.0911Z" fill="white"/>
<path d="M43.2385 53.7347C43.9274 53.7549 44.6162 53.7415 45.3118 53.7415C45.4857 53.7415 45.6395 53.7415 45.6395 53.4921C45.6395 53.236 45.4656 53.2562 45.2984 53.2562C44.342 53.2562 43.3923 53.263 42.4426 53.2495C42.1684 53.2427 42.0681 53.3371 42.0747 53.6202C42.0881 54.3817 42.0814 55.1433 42.0814 55.9049C42.0814 56.6665 42.0948 57.428 42.0747 58.1896C42.0681 58.4861 42.1216 58.6412 42.4693 58.6277C43.4057 58.6075 44.342 58.6209 45.2783 58.6142C45.4255 58.6142 45.6462 58.6816 45.6261 58.4053C45.6128 58.1357 45.392 58.2233 45.2516 58.2233C44.5427 58.2166 43.8404 58.2098 43.1315 58.2233C42.8773 58.23 42.777 58.1424 42.7837 57.8796C42.7971 57.3539 42.7971 56.8215 42.7837 56.289C42.777 56.0329 42.884 55.9318 43.1382 55.9386C43.5662 55.9453 43.9942 55.9386 44.4223 55.9386C44.5761 55.9386 44.7299 55.9318 44.7165 55.7094C44.7032 55.514 44.5493 55.5342 44.4223 55.5342C44.0277 55.5342 43.6331 55.514 43.2385 55.5409C42.9108 55.5612 42.7502 55.4735 42.7837 55.1096C42.8104 54.7996 42.8104 54.4828 42.7837 54.1661C42.7502 53.8089 42.9041 53.7213 43.2385 53.7347Z" fill="white"/>
<path d="M34.6908 54.5367C33.3198 54.5367 32.7111 55.1703 32.7178 56.5923C32.7245 57.9672 33.3599 58.6209 34.6841 58.6209C36.0485 58.6209 36.6571 57.9807 36.6504 56.5519C36.6437 55.1635 36.0351 54.5367 34.6908 54.5367ZM35.7676 57.4752C35.5803 58.0211 35.2794 58.2233 34.644 58.2233C34.0755 58.2166 33.7879 58.0211 33.6207 57.4819C33.4401 56.8686 33.4268 56.2419 33.614 55.6286C33.7612 55.1433 34.0956 54.9344 34.6708 54.9344C35.2459 54.9344 35.5737 55.1366 35.7342 55.6218C35.781 55.7633 35.8278 55.9049 35.8345 56.0532C35.8546 56.2486 35.8412 56.4508 35.8412 56.6462C35.8679 56.9293 35.8679 57.2056 35.7676 57.4752Z" fill="white"/>
<path d="M73.3007 54.7322C72.0366 54.2469 70.2175 54.4559 70.3044 56.5721C70.2242 58.3648 71.4815 58.8703 73.0131 58.5333C73.6552 58.3918 74.0029 57.92 74.1501 57.3C74.2705 56.808 74.2638 56.316 74.1434 55.8307C74.023 55.3387 73.7689 54.9141 73.3007 54.7322ZM73.3876 57.246C73.2004 57.9941 72.9061 58.2435 72.1437 58.2233C71.5685 58.2098 71.2073 57.8526 71.107 57.1719C71.0802 56.9765 71.0869 56.7743 71.0802 56.5788C71.0802 56.2621 71.0802 55.952 71.1939 55.6488C71.3879 55.1163 71.6889 54.9411 72.3443 54.9344C72.8727 54.9276 73.1937 55.2107 73.3141 55.6825C73.4478 56.1879 73.5214 56.7069 73.3876 57.246Z" fill="white"/>
<path d="M78.9726 56.134C78.9191 55.2107 78.2502 54.5839 77.3273 54.5502C76.7053 54.53 76.0766 54.5569 75.4546 54.53C75.1068 54.5165 75.04 54.6715 75.0533 54.9681C75.0734 55.4937 75.06 56.0262 75.06 56.5519C75.06 57.0978 75.0734 57.6437 75.0533 58.1896C75.04 58.4996 75.1202 58.6277 75.4613 58.6277C75.7823 58.6209 75.8425 58.4929 75.8358 58.2098C75.8225 57.5291 75.8292 56.8551 75.8292 56.1744C75.8292 54.9074 75.8292 54.9074 77.0932 54.9344C77.8423 54.9478 78.1967 55.305 78.2034 56.0734C78.2101 56.8147 78.2168 57.5628 78.2034 58.3042C78.1967 58.6479 78.4041 58.6142 78.6248 58.6142C78.8455 58.6209 79.006 58.6007 78.9993 58.3042C78.9793 57.5898 79.0127 56.8551 78.9726 56.134Z" fill="white"/>
<path d="M13.5563 56.1408C13.5229 55.2511 12.8675 54.5907 11.978 54.557C11.3359 54.53 10.6938 54.557 10.0585 54.5368C9.77756 54.53 9.68393 54.6311 9.69062 54.9074C9.70399 55.4533 9.6973 55.9992 9.6973 56.5451C9.6973 57.1045 9.71068 57.6707 9.69062 58.23C9.67724 58.5266 9.77756 58.6344 10.0785 58.6344C10.3862 58.6344 10.4798 58.5333 10.4664 58.23C10.4464 57.5359 10.4597 56.8417 10.4597 56.1475C10.4597 54.9074 10.4597 54.9074 11.7171 54.9411C12.4261 54.9613 12.7738 55.3051 12.7805 56.0195C12.7872 56.7608 12.7939 57.5089 12.7738 58.2503C12.7671 58.5738 12.9076 58.6344 13.1885 58.6277C13.4493 58.6277 13.5764 58.567 13.5697 58.2705C13.5563 57.5561 13.5831 56.8484 13.5563 56.1408Z" fill="white"/>
<path d="M55.1091 56.6058C55.1091 56.0801 55.1024 55.5477 55.1158 55.022C55.1225 54.7255 55.1158 54.53 54.7145 54.53C54.2932 54.53 54.3333 54.7794 54.3333 55.049C54.3333 55.7095 54.3333 56.3699 54.3333 57.0304C54.3333 58.2503 54.3333 58.2503 53.116 58.2233C52.387 58.2098 52.0259 57.8594 52.0192 57.1315C52.0125 56.3902 52.0058 55.6421 52.0192 54.9007C52.0259 54.6042 51.8988 54.5368 51.638 54.5435C51.3905 54.5502 51.2367 54.5772 51.2434 54.8872C51.2634 55.5612 51.2367 56.2419 51.2568 56.9226C51.2835 57.92 51.9456 58.594 52.9422 58.621C53.5307 58.6412 54.1259 58.6075 54.7145 58.6344C55.0556 58.6479 55.1292 58.5064 55.1158 58.1964C55.0957 57.6639 55.1091 57.1315 55.1091 56.6058Z" fill="white"/>
<path d="M19.4149 56.4103C19.0738 56.2149 18.6926 56.2149 18.3247 56.1205C18.0171 56.0464 17.7629 55.8981 17.7696 55.5274C17.7763 55.1298 18.0505 54.9883 18.3849 54.9411C18.6458 54.9074 18.9066 54.9209 19.1741 54.9209C19.3614 54.9209 19.4417 54.8265 19.4417 54.6445C19.4417 54.4693 19.3614 54.3615 19.1808 54.3615C18.706 54.3547 18.2311 54.3076 17.7629 54.4558C17.2613 54.6176 16.9269 55.022 16.9135 55.4937C16.9002 55.979 17.1811 56.4103 17.6827 56.5923C17.9569 56.6934 18.2512 56.7473 18.5388 56.8012C18.8999 56.8619 19.1942 57.0236 19.1741 57.4213C19.1541 57.8054 18.8397 57.9739 18.4986 58.0211C18.1575 58.0683 17.8164 58.0885 17.4687 58.102C17.2814 58.1087 17.1476 58.1357 17.1476 58.3715C17.1476 58.6142 17.3081 58.6209 17.482 58.6209C17.6626 58.6142 17.8432 58.6209 18.1241 58.6209C18.5053 58.6479 18.9735 58.5939 19.4082 58.3513C19.7961 58.1357 20.0503 57.8054 20.0436 57.3606C20.0302 56.9427 19.7827 56.626 19.4149 56.4103Z" fill="white"/>
<path d="M39.3458 53.2562C38.5298 53.0338 37.5935 53.6404 37.4463 54.4761C37.3193 55.1972 37.3795 55.9318 37.3728 56.653C37.3728 57.1989 37.3795 57.7448 37.3661 58.2907C37.3594 58.567 37.4865 58.6209 37.7272 58.6209C37.968 58.6142 38.1419 58.6074 38.1285 58.2839C38.1085 57.8526 38.1218 57.4213 38.1218 56.9899C38.1218 56.1542 38.1218 56.1542 38.9645 56.1071C38.9779 56.1071 38.998 56.1071 39.0114 56.1071C39.1719 56.1138 39.3056 56.0801 39.3056 55.8712C39.3056 55.669 39.1986 55.6218 39.0247 55.6218C38.8107 55.6286 38.5967 55.6218 38.3827 55.6218C38.2355 55.6218 38.1553 55.5814 38.1218 55.4061C37.9346 54.4289 38.3091 53.8291 39.2521 53.6539C39.2856 53.6471 39.319 53.6471 39.3524 53.6471C39.4728 53.6336 39.513 53.5528 39.513 53.4449C39.5196 53.3371 39.4595 53.2899 39.3458 53.2562Z" fill="white"/>
<path d="M59.3835 54.5435C59.0892 54.5435 58.7949 54.5435 58.494 54.5435V54.5502C58.1997 54.5502 57.8987 54.53 57.6044 54.557C56.8688 54.6109 56.2066 55.1972 56.113 55.9184C56.0528 56.3699 56.0461 56.8417 56.1598 57.3C56.3605 58.102 56.9156 58.5805 57.7315 58.6142C58.2532 58.6344 58.7816 58.621 59.3099 58.621C59.4504 58.621 59.6243 58.6547 59.6243 58.4255C59.6243 58.1896 59.4437 58.2301 59.3032 58.2301C58.8417 58.2233 58.3803 58.2435 57.9255 58.2233C57.377 58.2031 57.0025 57.8392 56.9691 57.2865C56.9423 56.8417 56.949 56.3969 56.9624 55.9453C56.9891 55.2916 57.3369 54.9614 57.999 54.9479C58.4605 54.9411 58.9153 54.9479 59.3768 54.9411C59.4972 54.9411 59.6109 54.9277 59.6176 54.7659C59.6443 54.5772 59.5373 54.5435 59.3835 54.5435Z" fill="white"/>
<path d="M22.5112 58.2166C21.722 58.102 21.5013 57.8594 21.4612 57.0573C21.4411 56.6597 21.4545 56.2621 21.4545 55.8712C21.4545 55.0759 21.4545 55.0759 22.2504 55.0489C22.4176 55.0422 22.6249 55.1096 22.6383 54.8131C22.6517 54.4896 22.431 54.5435 22.237 54.5367C21.4679 54.5165 21.4679 54.5165 21.4478 53.7617C21.4478 53.728 21.4411 53.6943 21.4478 53.6606C21.4812 53.3843 21.3274 53.3371 21.0933 53.3371C20.8392 53.3371 20.7389 53.418 20.7455 53.6808C20.7589 54.3413 20.7522 55.0018 20.7522 55.6623C20.692 56.1408 20.7455 56.6193 20.7455 57.091C20.7389 58.2166 21.6418 58.6748 22.5112 58.6209C22.6383 58.6142 22.7921 58.6479 22.8055 58.4524C22.8189 58.2233 22.665 58.2368 22.5112 58.2166Z" fill="white"/>
<path d="M67.1215 58.2166C66.6266 58.1424 66.339 57.8796 66.2454 57.3607C66.1585 56.8687 66.1785 56.3767 66.1718 55.8779C66.1651 55.0422 66.1718 55.049 66.9744 55.0153C67.1483 55.0085 67.3556 55.0557 67.3489 54.7659C67.3423 54.4626 67.1149 54.5435 66.9543 54.5435C66.1852 54.5166 66.1852 54.5166 66.1651 53.7617C66.1651 53.728 66.1585 53.6943 66.1651 53.6606C66.1986 53.3843 66.0448 53.3371 65.8107 53.3304C65.5632 53.3304 65.4629 53.4045 65.4629 53.6674C65.4763 54.8064 65.4495 55.9453 65.483 57.0843C65.5097 58.0616 66.0715 58.5805 67.1082 58.6075C67.2018 58.5199 67.5028 58.7558 67.5228 58.4188C67.5429 58.1222 67.2754 58.2435 67.1215 58.2166Z" fill="white"/>
<path d="M25.6885 54.5435C25.5881 54.5435 25.4945 54.5435 25.2872 54.5435C24.3107 54.5569 23.7489 55.1028 23.7288 56.1812C23.7155 56.8551 23.7355 57.5358 23.7222 58.2098C23.7155 58.4929 23.7757 58.6142 24.0967 58.6209C24.4512 58.6276 24.5114 58.4726 24.4913 58.1761C24.4645 57.6504 24.4244 57.118 24.4378 56.5923C24.4712 55.3724 24.5849 55.2444 25.7018 54.9411C25.8423 54.9007 25.8958 54.84 25.8824 54.7052C25.8757 54.5906 25.8022 54.5502 25.6885 54.5435Z" fill="white"/>
<path d="M7.93866 54.5502C7.65107 54.5502 7.53068 54.6311 7.53737 54.9411C7.55075 56.0464 7.55744 57.1517 7.53737 58.257C7.53068 58.5872 7.67782 58.6277 7.95204 58.6277C8.21956 58.6277 8.33995 58.5603 8.32657 58.2637C8.30651 57.7178 8.31988 57.1787 8.31988 56.6328C8.31988 56.0734 8.30651 55.514 8.32657 54.9546C8.33995 54.6513 8.24631 54.5435 7.93866 54.5502Z" fill="white"/>
<path d="M15.4225 54.53C15.1683 54.5368 15.0346 54.5772 15.0413 54.8805C15.0546 56.0195 15.0546 57.1517 15.0413 58.2907C15.0346 58.6142 15.2085 58.6142 15.4425 58.6209C15.6967 58.6277 15.8371 58.5805 15.8305 58.2705C15.8104 57.7111 15.8238 57.1517 15.8238 56.5923C15.8238 56.0329 15.8104 55.4736 15.8305 54.9142C15.8371 54.5974 15.7034 54.5233 15.4225 54.53Z" fill="white"/>
<path d="M69.2144 56.6328C69.2144 56.0532 69.201 55.4803 69.221 54.9007C69.2277 54.6176 69.1274 54.53 68.8532 54.53C68.5857 54.5368 68.4252 54.5637 68.4318 54.9007C68.4519 56.0195 68.4519 57.1383 68.4318 58.2638C68.4252 58.6007 68.5924 58.6277 68.8532 58.6277C69.1274 58.6344 69.2277 58.5468 69.221 58.2638C69.201 57.7179 69.2144 57.1719 69.2144 56.6328Z" fill="white"/>
<path d="M56.1194 38.6381C56.4671 38.6111 56.7681 38.2809 56.7547 37.9372C56.7414 37.5867 56.427 37.2767 56.0792 37.2767C55.7047 37.2767 55.3904 37.6002 55.4037 37.9776C55.4104 38.355 55.7448 38.665 56.1194 38.6381Z" fill="white"/>
<path d="M58.005 38.6381C58.3595 38.6448 58.6671 38.355 58.6872 37.9911C58.7073 37.6069 58.4063 37.2767 58.0318 37.27C57.6773 37.2632 57.3696 37.553 57.3496 37.917C57.3295 38.3011 57.6305 38.6313 58.005 38.6381Z" fill="white"/>
<path d="M41.4123 38.638C41.7601 38.6111 42.0544 38.2808 42.041 37.9304C42.0276 37.5799 41.7133 37.2699 41.3655 37.2699C40.991 37.2699 40.6833 37.5934 40.6967 37.9776C40.7101 38.3617 41.0378 38.665 41.4123 38.638Z" fill="white"/>
<path d="M69.7168 38.6381C70.0913 38.6448 70.4056 38.3213 70.399 37.9439C70.3923 37.5665 70.0646 37.2497 69.69 37.2767C69.3422 37.2969 69.0413 37.6272 69.048 37.9709C69.0546 38.3146 69.369 38.6313 69.7168 38.6381Z" fill="white"/>
<path d="M39.4061 38.6381C39.774 38.6448 40.1017 38.3146 40.095 37.9439C40.0883 37.5934 39.7806 37.2767 39.4329 37.2699C39.065 37.2632 38.7373 37.5934 38.7373 37.9641C38.744 38.3146 39.0583 38.6246 39.4061 38.6381Z" fill="white"/>
<path d="M9.06138 46.6245C8.72029 46.6178 8.38588 46.921 8.36582 47.2648C8.33907 47.6287 8.6601 47.9792 9.02794 47.9859C9.40916 47.9926 9.71682 47.6826 9.71682 47.2985C9.71013 46.948 9.40248 46.6312 9.06138 46.6245Z" fill="white"/>
<path d="M11.6703 47.3254C11.677 46.9547 11.3493 46.6177 10.9814 46.6245C10.6336 46.6312 10.3193 46.9413 10.3126 47.2917C10.3059 47.6691 10.6203 47.9926 10.9948 47.9859C11.3493 47.9791 11.6569 47.6691 11.6703 47.3254Z" fill="white"/>
<path d="M7.93867 54.1324C8.18613 54.1324 8.29983 53.9437 8.31989 53.7078C8.29983 53.4652 8.19282 53.2832 7.94536 53.2764C7.6979 53.2697 7.55745 53.4315 7.55076 53.6808C7.53738 53.9437 7.66446 54.1324 7.93867 54.1324Z" fill="white"/>
<path d="M15.4226 54.1324C15.67 54.1391 15.7837 53.9571 15.8172 53.7213C15.8038 53.4719 15.7035 53.2899 15.456 53.2697C15.2086 53.2495 15.0681 53.4112 15.048 53.6606C15.028 53.9234 15.1484 54.1189 15.4226 54.1324Z" fill="white"/>
<path d="M68.8468 54.0447C69.0608 53.9976 69.2079 53.8763 69.2012 53.6471C69.1879 53.3977 69.034 53.2427 68.7866 53.2697C68.5659 53.2899 68.4321 53.4517 68.4522 53.6808C68.4722 53.9032 68.6194 54.0245 68.8468 54.0447Z" fill="white"/>
</g>
<defs>
<clipPath id="clip0_96_18889">
<rect width="79" height="61" fill="white"/>
</clipPath>
</defs>
</svg>
